<svg xmlns="http://www.w3.org/2000/svg" width="659" height="175" viewBox="0 0 659 175">
  <g id="Tổng_kết" data-name="Tổng kết" transform="translate(-694 -1925)">
    <g id="Rating" transform="translate(-1 -19.5)">
      <text id="_4.8" data-name="4.8" transform="translate(759 2024)" fill="#18191b" font-size="50" font-family="Roboto-Regular, Roboto"><tspan x="-34.656" y="0">4.8</tspan></text>
      <g id="Group_5277" data-name="Group 5277" transform="translate(-45)">
        <g id="Layer_2" data-name="Layer 2" transform="translate(740 2037)">
          <g id="star">
            <rect id="Rectangle_75" data-name="Rectangle 75" width="24" height="24" transform="translate(24) rotate(90)" fill="#faaf3a" opacity="0"/>
            <path id="Path_6347" data-name="Path 6347" d="M17.56,21a1,1,0,0,1-.46-.11L12,18.22,6.9,20.89a1,1,0,0,1-1.45-1.06l1-5.63-4.12-4a.985.985,0,0,1,.56-1.68l5.7-.83L11.1,2.56a1,1,0,0,1,1.8,0l2.54,5.12,5.7.83a.985.985,0,0,1,.56,1.68l-4.12,4,1,5.63A.99.99,0,0,1,17.56,21Z" transform="translate(0 0)" fill="#faaf3a"/>
          </g>
        </g>
        <g id="Layer_2-2" data-name="Layer 2" transform="translate(766.4 2037)">
          <g id="star-2" data-name="star">
            <rect id="Rectangle_75-2" data-name="Rectangle 75" width="24" height="24" transform="translate(24) rotate(90)" fill="#faaf3a" opacity="0"/>
            <path id="Path_6347-2" data-name="Path 6347" d="M17.56,21a1,1,0,0,1-.46-.11L12,18.22,6.9,20.89a1,1,0,0,1-1.45-1.06l1-5.63-4.12-4a.985.985,0,0,1,.56-1.68l5.7-.83L11.1,2.56a1,1,0,0,1,1.8,0l2.54,5.12,5.7.83a.985.985,0,0,1,.56,1.68l-4.12,4,1,5.63A.99.99,0,0,1,17.56,21Z" transform="translate(0 0)" fill="#faaf3a"/>
          </g>
        </g>
        <g id="Layer_2-3" data-name="Layer 2" transform="translate(792.8 2037)">
          <g id="star-3" data-name="star">
            <rect id="Rectangle_75-3" data-name="Rectangle 75" width="24" height="24" transform="translate(24) rotate(90)" fill="#faaf3a" opacity="0"/>
            <path id="Path_6347-3" data-name="Path 6347" d="M17.56,21a1,1,0,0,1-.46-.11L12,18.22,6.9,20.89a1,1,0,0,1-1.45-1.06l1-5.63-4.12-4a.985.985,0,0,1,.56-1.68l5.7-.83L11.1,2.56a1,1,0,0,1,1.8,0l2.54,5.12,5.7.83a.985.985,0,0,1,.56,1.68l-4.12,4,1,5.63A.99.99,0,0,1,17.56,21Z" transform="translate(0 0)" fill="#faaf3a"/>
          </g>
        </g>
        <g id="Layer_2-4" data-name="Layer 2" transform="translate(816.8 2037)">
          <g id="star-4" data-name="star">
            <rect id="Rectangle_75-4" data-name="Rectangle 75" width="24" height="24" transform="translate(24) rotate(90)" fill="#faaf3a" opacity="0"/>
            <path id="Path_6347-4" data-name="Path 6347" d="M17.56,21a1,1,0,0,1-.46-.11L12,18.22,6.9,20.89a1,1,0,0,1-1.45-1.06l1-5.63-4.12-4a.985.985,0,0,1,.56-1.68l5.7-.83L11.1,2.56a1,1,0,0,1,1.8,0l2.54,5.12,5.7.83a.985.985,0,0,1,.56,1.68l-4.12,4,1,5.63A.99.99,0,0,1,17.56,21Z" transform="translate(0 0)" fill="#faaf3a"/>
          </g>
        </g>
        <g id="Layer_2-5" data-name="Layer 2" transform="translate(843.2 2037)">
          <g id="star-5" data-name="star">
            <rect id="Rectangle_75-5" data-name="Rectangle 75" width="24" height="24" transform="translate(24) rotate(90)" fill="#faaf3a" opacity="0"/>
            <path id="Path_6347-5" data-name="Path 6347" d="M17.56,21a1,1,0,0,1-.46-.11L12,18.22,6.9,20.89a1,1,0,0,1-1.45-1.06l1-5.63-4.12-4a.985.985,0,0,1,.56-1.68l5.7-.83L11.1,2.56a1,1,0,0,1,1.8,0l2.54,5.12,5.7.83a.985.985,0,0,1,.56,1.68l-4.12,4,1,5.63A.99.99,0,0,1,17.56,21Z" transform="translate(0 0)" fill="#faaf3a"/>
          </g>
        </g>
      </g>
      <text id="_105_đánh_giá" data-name="105 đánh giá" transform="translate(719 2084)" fill="#4e6579" font-size="14" font-family="Roboto-Regular, Roboto" opacity="0.75"><tspan x="0" y="0">105 đánh giá</tspan></text>
      <line id="Line" y2="175" transform="translate(881 1944.5)" fill="none" stroke="#4e6579" stroke-width="1" opacity="0.15"/>
    </g>
    <g id="Group" transform="translate(636 -104.5)">
      <line id="Line-2" data-name="Line" x1="368.5" transform="translate(280 2049)" fill="none" stroke="#4e6579" stroke-linecap="round" stroke-width="5" opacity="0.15"/>
      <line id="Line-3" data-name="Line" x1="308.35" transform="translate(280 2049)" fill="none" stroke="#00ba0c" stroke-linecap="round" stroke-width="5"/>
      <g id="Layer_2-6" data-name="Layer 2" transform="translate(693 2037)">
        <g id="star-6" data-name="star">
          <rect id="Rectangle_75-6" data-name="Rectangle 75" width="24" height="24" transform="translate(24) rotate(90)" fill="#faaf3a" opacity="0"/>
          <path id="Path_6347-6" data-name="Path 6347" d="M17.56,21a1,1,0,0,1-.46-.11L12,18.22,6.9,20.89a1,1,0,0,1-1.45-1.06l1-5.63-4.12-4a.985.985,0,0,1,.56-1.68l5.7-.83L11.1,2.56a1,1,0,0,1,1.8,0l2.54,5.12,5.7.83a.985.985,0,0,1,.56,1.68l-4.12,4,1,5.63A.99.99,0,0,1,17.56,21Z" transform="translate(0 0)" fill="#faaf3a"/>
        </g>
      </g>
      <text id="_5" data-name="5" transform="translate(675 2053.5)" fill="#4e6579" font-size="14" font-family="Roboto-Regular, Roboto" opacity="0.75"><tspan x="0" y="0">5</tspan></text>
    </g>
    <g id="Group-2" data-name="Group" transform="translate(636 -70.5)">
      <line id="Line-4" data-name="Line" x1="368.5" transform="translate(280 2049)" fill="none" stroke="#4e6579" stroke-linecap="round" stroke-width="5" opacity="0.15"/>
      <line id="Line-5" data-name="Line" x1="66.075" transform="translate(280 2049)" fill="none" stroke="#00ba74" stroke-linecap="round" stroke-width="5"/>
      <g id="Layer_2-7" data-name="Layer 2" transform="translate(693 2037)">
        <g id="star-7" data-name="star">
          <rect id="Rectangle_75-7" data-name="Rectangle 75" width="24" height="24" transform="translate(24) rotate(90)" fill="#faaf3a" opacity="0"/>
          <path id="Path_6347-7" data-name="Path 6347" d="M17.56,21a1,1,0,0,1-.46-.11L12,18.22,6.9,20.89a1,1,0,0,1-1.45-1.06l1-5.63-4.12-4a.985.985,0,0,1,.56-1.68l5.7-.83L11.1,2.56a1,1,0,0,1,1.8,0l2.54,5.12,5.7.83a.985.985,0,0,1,.56,1.68l-4.12,4,1,5.63A.99.99,0,0,1,17.56,21Z" transform="translate(0 0)" fill="#faaf3a"/>
        </g>
      </g>
      <text id="_4" data-name="4" transform="translate(683 2053.5)" fill="#4e6579" font-size="14" font-family="Roboto-Regular, Roboto" opacity="0.75"><tspan x="-7.861" y="0">4</tspan></text>
    </g>
    <g id="Group-3" data-name="Group" transform="translate(636 -36.5)">
      <line id="Line-6" data-name="Line" x1="368.5" transform="translate(280 2049)" fill="none" stroke="#4e6579" stroke-linecap="round" stroke-width="5" opacity="0.15"/>
      <line id="Line-7" data-name="Line" x1="88.1" transform="translate(280 2049)" fill="none" stroke="#fbb851" stroke-linecap="round" stroke-width="5"/>
      <g id="Layer_2-8" data-name="Layer 2" transform="translate(693 2037)">
        <g id="star-8" data-name="star">
          <rect id="Rectangle_75-8" data-name="Rectangle 75" width="24" height="24" transform="translate(24) rotate(90)" fill="#faaf3a" opacity="0"/>
          <path id="Path_6347-8" data-name="Path 6347" d="M17.56,21a1,1,0,0,1-.46-.11L12,18.22,6.9,20.89a1,1,0,0,1-1.45-1.06l1-5.63-4.12-4a.985.985,0,0,1,.56-1.68l5.7-.83L11.1,2.56a1,1,0,0,1,1.8,0l2.54,5.12,5.7.83a.985.985,0,0,1,.56,1.68l-4.12,4,1,5.63A.99.99,0,0,1,17.56,21Z" transform="translate(0 0)" fill="#faaf3a"/>
        </g>
      </g>
      <text id="_3" data-name="3" transform="translate(675 2053.5)" fill="#4e6579" font-size="14" font-family="Roboto-Regular, Roboto" opacity="0.75"><tspan x="0" y="0">3</tspan></text>
    </g>
    <g id="Group-4" data-name="Group" transform="translate(636 -2.5)">
      <line id="Line-8" data-name="Line" x1="368.5" transform="translate(280 2049)" fill="none" stroke="#4e6579" stroke-linecap="round" stroke-width="5" opacity="0.15"/>
      <line id="Line-9" data-name="Line" x1="14.683" transform="translate(280 2049)" fill="none" stroke="#fb8551" stroke-linecap="round" stroke-width="5"/>
      <g id="Layer_2-9" data-name="Layer 2" transform="translate(693 2037)">
        <g id="star-9" data-name="star">
          <rect id="Rectangle_75-9" data-name="Rectangle 75" width="24" height="24" transform="translate(24) rotate(90)" fill="#faaf3a" opacity="0"/>
          <path id="Path_6347-9" data-name="Path 6347" d="M17.56,21a1,1,0,0,1-.46-.11L12,18.22,6.9,20.89a1,1,0,0,1-1.45-1.06l1-5.63-4.12-4a.985.985,0,0,1,.56-1.68l5.7-.83L11.1,2.56a1,1,0,0,1,1.8,0l2.54,5.12,5.7.83a.985.985,0,0,1,.56,1.68l-4.12,4,1,5.63A.99.99,0,0,1,17.56,21Z" transform="translate(0 0)" fill="#faaf3a"/>
        </g>
      </g>
      <text id="_2" data-name="2" transform="translate(675 2053.5)" fill="#4e6579" font-size="14" font-family="Roboto-Regular, Roboto" opacity="0.75"><tspan x="0" y="0">2</tspan></text>
    </g>
    <g id="Group-5" data-name="Group" transform="translate(636 31.5)">
      <line id="Line-10" data-name="Line" x1="368.5" transform="translate(280 2049)" fill="none" stroke="#4e6579" stroke-linecap="round" stroke-width="5" opacity="0.15"/>
      <line id="Line-11" data-name="Line" x1="8.81" transform="translate(280 2049)" fill="none" stroke="#e6453c" stroke-linecap="round" stroke-width="5"/>
      <g id="Layer_2-10" data-name="Layer 2" transform="translate(693 2037)">
        <g id="star-10" data-name="star">
          <rect id="Rectangle_75-10" data-name="Rectangle 75" width="24" height="24" transform="translate(24) rotate(90)" fill="#faaf3a" opacity="0"/>
          <path id="Path_6347-10" data-name="Path 6347" d="M17.56,21a1,1,0,0,1-.46-.11L12,18.22,6.9,20.89a1,1,0,0,1-1.45-1.06l1-5.63-4.12-4a.985.985,0,0,1,.56-1.68l5.7-.83L11.1,2.56a1,1,0,0,1,1.8,0l2.54,5.12,5.7.83a.985.985,0,0,1,.56,1.68l-4.12,4,1,5.63A.99.99,0,0,1,17.56,21Z" transform="translate(0 0)" fill="#faaf3a"/>
        </g>
      </g>
      <text id="_1" data-name="1" transform="translate(675 2053.5)" fill="#4e6579" font-size="14" font-family="Roboto-Regular, Roboto" opacity="0.75"><tspan x="0" y="0">1</tspan></text>
    </g>
  </g>
</svg>
