<svg id="icon-2" xmlns="http://www.w3.org/2000/svg" width="63.006" height="49.752" viewBox="0 0 63.006 49.752">
  <path id="Path_7337" data-name="Path 7337" d="M0,5A5,5,0,0,1,5,0H17.115a20,20,0,0,1,20,20V40.611a5,5,0,0,1-5,5H20a20,20,0,0,1-20-20Z" fill="#1795a8" opacity="0.2"/>
  <path id="Path_7338" data-name="Path 7338" d="M39.311,24.592a8.553,8.553,0,1,0-8.551-8.554A8.563,8.563,0,0,0,39.311,24.592Zm0-15.4a6.848,6.848,0,1,1-6.847,6.847A6.856,6.856,0,0,1,39.311,9.191Z" fill="#1795a8"/>
  <path id="Path_7339" data-name="Path 7339" d="M55.158,20.6h0l2.052,1.736a2.982,2.982,0,0,1,.766,3.54l1.8,1.9Zm0,0a2.968,2.968,0,0,0-2.174-.7h0m2.174.7-2.174-.7m0,0a2.983,2.983,0,0,0-1.68,5.25h0l2.051,1.737h0M52.985,19.9l.371,6.987m0,0a2.979,2.979,0,0,0,3.483.263L58.3,28.695V39.807H54.22a14.674,14.674,0,0,0-29.334,0H23.11a.852.852,0,0,0-.852.853V48.9a.852.852,0,0,0,.852.852H62.154a.852.852,0,0,0,.852-.852v-8.24a.853.853,0,0,0-.852-.854H60M53.356,26.888,60,39.806M52.256,22.047h0a1.28,1.28,0,0,0,.15,1.8l2.051,1.737Zm0,0a1.266,1.266,0,0,1,.87-.448l-.008-.1.008.1q.054,0,.108,0a1.27,1.27,0,0,1,.824.3l2.052,1.736h0a1.281,1.281,0,0,1,.149,1.8h0m-4-3.388,4,3.388m0,0a1.281,1.281,0,0,1-1.8.15ZM60,39.806V28.355a.85.85,0,0,0-.233-.586ZM39.553,27.3A12.988,12.988,0,0,1,52.515,39.805H26.592A12.987,12.987,0,0,1,39.553,27.3ZM61.3,48.046H23.962V41.511H61.3Z" fill="#1795a8"/>
</svg>
