<svg xmlns="http://www.w3.org/2000/svg" width="67" height="60" viewBox="0 0 67 60">
  <g id="icon-1" transform="translate(0 -0.641)">
    <path id="Path_7334" data-name="Path 7334" d="M0,5.641a5,5,0,0,1,5-5H21.93a20,20,0,0,1,20,20v26a5,5,0,0,1-5,5H20a20,20,0,0,1-20-20Z" fill="#1795a8" opacity="0.2"/>
    <g id="diagram" transform="translate(17 10.641)">
      <path id="Path_7443" data-name="Path 7443" d="M325.532,0H314.314a4.256,4.256,0,0,0-4.251,4.251V16.445a10.124,10.124,0,0,1,3.283,3.275h12.186a4.256,4.256,0,0,0,4.251-4.251V4.251A4.256,4.256,0,0,0,325.532,0Zm2.1,15.469a2.105,2.105,0,0,1-2.1,2.1H312.211V4.251a2.105,2.105,0,0,1,2.1-2.1h11.218a2.105,2.105,0,0,1,2.1,2.1Z" transform="translate(-279.783)" fill="#1795a8"/>
      <path id="Path_7444" data-name="Path 7444" d="M16.479,310.062H4.251A4.256,4.256,0,0,0,0,314.313v11.218a4.256,4.256,0,0,0,4.251,4.251H15.469a4.256,4.256,0,0,0,4.251-4.251v-12.22A10.123,10.123,0,0,1,16.479,310.062Zm1.093,15.469a2.105,2.105,0,0,1-2.1,2.1H4.251a2.105,2.105,0,0,1-2.1-2.1V314.313a2.105,2.105,0,0,1,2.1-2.1H17.572v13.321Z" transform="translate(0 -279.783)" fill="#1795a8"/>
      <path id="Path_7445" data-name="Path 7445" d="M71.919,114.876H67.153a1.074,1.074,0,0,0,0,2.148h4.765a1.074,1.074,0,0,0,0-2.148Z" transform="translate(-59.626 -103.658)" fill="#1795a8"/>
      <path id="Path_7446" data-name="Path 7446" d="M376.2,117.024h4.765a1.074,1.074,0,0,0,0-2.148H376.2a1.074,1.074,0,0,0,0,2.148Z" transform="translate(-338.491 -103.658)" fill="#1795a8"/>
      <path id="Path_7447" data-name="Path 7447" d="M45.749,30.279H33.563A10.04,10.04,0,0,0,19.72,16.471V4.251A4.256,4.256,0,0,0,15.469,0H4.251A4.256,4.256,0,0,0,0,4.251V15.469A4.256,4.256,0,0,0,4.251,19.72H16.479a10.04,10.04,0,0,0,13.8,13.834V45.749A4.256,4.256,0,0,0,34.53,50H45.749A4.256,4.256,0,0,0,50,45.749V34.531A4.256,4.256,0,0,0,45.749,30.279Zm-43.6-14.81V4.251a2.105,2.105,0,0,1,2.1-2.1H15.469a2.105,2.105,0,0,1,2.1,2.1V17.572H4.251A2.1,2.1,0,0,1,2.148,15.469ZM17.124,25a7.9,7.9,0,1,1,7.9,7.9A7.905,7.905,0,0,1,17.124,25ZM47.851,45.749a2.105,2.105,0,0,1-2.1,2.1H34.531a2.105,2.105,0,0,1-2.1-2.1V32.428H45.749a2.105,2.105,0,0,1,2.1,2.1Z" fill="#1795a8"/>
      <path id="Path_7448" data-name="Path 7448" d="M71.919,423.921H67.153a1.074,1.074,0,1,0,0,2.148h4.765a1.074,1.074,0,1,0,0-2.148Z" transform="translate(-59.626 -382.523)" fill="#1795a8"/>
      <path id="Path_7449" data-name="Path 7449" d="M380.964,423.921H376.2a1.074,1.074,0,1,0,0,2.148h4.765a1.074,1.074,0,1,0,0-2.148Z" transform="translate(-338.491 -382.523)" fill="#1795a8"/>
      <path id="Path_7450" data-name="Path 7450" d="M232.986,269.4h-3.177a1.074,1.074,0,0,0,0,2.148h3.177a1.074,1.074,0,1,0,0-2.148Z" transform="translate(-206.398 -243.09)" fill="#1795a8"/>
      <circle id="Ellipse_45" data-name="Ellipse 45" cx="1.074" cy="1.074" r="1.074" transform="translate(8.836 6.453)" fill="#1795a8"/>
      <circle id="Ellipse_46" data-name="Ellipse 46" cx="1.074" cy="1.074" r="1.074" transform="translate(39.016 6.453)" fill="#1795a8"/>
      <circle id="Ellipse_47" data-name="Ellipse 47" cx="1.074" cy="1.074" r="1.074" transform="translate(39.016 36.633)" fill="#1795a8"/>
      <circle id="Ellipse_48" data-name="Ellipse 48" cx="1.074" cy="1.074" r="1.074" transform="translate(8.836 36.633)" fill="#1795a8"/>
      <circle id="Ellipse_49" data-name="Ellipse 49" cx="1.074" cy="1.074" r="1.074" transform="translate(23.926 21.543)" fill="#1795a8"/>
    </g>
  </g>
</svg>
