<svg id="icon-2" xmlns="http://www.w3.org/2000/svg" width="64" height="50" viewBox="0 0 64 50">
  <path id="Path_7337" data-name="Path 7337" d="M0,5A5,5,0,0,1,5,0H17.115a20,20,0,0,1,20,20V40.611a5,5,0,0,1-5,5H20a20,20,0,0,1-20-20Z" fill="#1795a8" opacity="0.2"/>
  <g id="phishing" transform="translate(20 6)">
    <g id="Group_6729" data-name="Group 6729" transform="translate(13.105)">
      <path id="Path_7468" data-name="Path 7468" d="M156.929,8.88a4.44,4.44,0,1,1,4.44-4.44A4.445,4.445,0,0,1,156.929,8.88Zm0-6.989a2.549,2.549,0,1,0,2.549,2.549A2.552,2.552,0,0,0,156.929,1.891Z" transform="translate(-152.489)" fill="#1795a8"/>
    </g>
    <g id="Group_6730" data-name="Group 6730" transform="translate(0 12.231)">
      <path id="Path_7469" data-name="Path 7469" d="M44,151.99a.948.948,0,0,0-.276-.654L34.987,142.6a.953.953,0,0,0-.668-.277H18.49v1.891H33.373v5.17a3.57,3.57,0,0,0,3.566,3.566h5.17v17.576a1.678,1.678,0,0,1-1.676,1.676H3.566a1.678,1.678,0,0,1-1.676-1.676V145.889a1.678,1.678,0,0,1,1.676-1.676H16.6v-1.891H3.566A3.57,3.57,0,0,0,0,145.889v24.637a3.57,3.57,0,0,0,3.566,3.566H40.434A3.57,3.57,0,0,0,44,170.526V152S44,152,44,151.99Zm-7.06-.931a1.678,1.678,0,0,1-1.676-1.676v-3.833l2.754,2.754,2.754,2.754Z" transform="translate(0 -142.323)" fill="#1795a8"/>
      <path id="Path_7470" data-name="Path 7470" d="M265.287,271.967a4.44,4.44,0,1,0-6.121,0,6.969,6.969,0,0,0-4,6.3v.974a.945.945,0,0,0,.945.945h12.231a.945.945,0,0,0,.945-.945v-.974A6.969,6.969,0,0,0,265.287,271.967Zm-3.06-5.761a2.549,2.549,0,1,1-2.549,2.549A2.552,2.552,0,0,1,262.227,266.206Zm5.17,12.088h-10.34v-.028a5.076,5.076,0,0,1,5.07-5.07h.2a5.076,5.076,0,0,1,5.07,5.07Z" transform="translate(-233.238 -253.831)" fill="#1795a8"/>
      <path id="Path_7471" data-name="Path 7471" d="M74.316,426.971H62.958a.945.945,0,0,0,0,1.891H74.316a.945.945,0,0,0,0-1.891Z" transform="translate(-56.684 -402.509)" fill="#1795a8"/>
      <path id="Path_7472" data-name="Path 7472" d="M74.316,365.975H62.958a.945.945,0,0,0,0,1.891H74.316a.945.945,0,0,0,0-1.891Z" transform="translate(-56.684 -346.755)" fill="#1795a8"/>
    </g>
    <path id="Path_7473" data-name="Path 7473" d="M73.3,102.239a4.434,4.434,0,0,1-.945-.1v14.009a3.423,3.423,0,1,1-6.846,0v-4.368a.945.945,0,0,0-1.614-.669l-2.621,2.621a.945.945,0,0,0,1.337,1.337l1.007-1.007v2.086a5.313,5.313,0,1,0,10.627,0V102.137A4.441,4.441,0,0,1,73.3,102.239Z" transform="translate(-55.754 -93.36)" fill="#1795a8"/>
  </g>
</svg>
