<svg id="icon-2" xmlns="http://www.w3.org/2000/svg" width="64.632" height="48.924" viewBox="0 0 64.632 48.924">
  <path id="Path_7337" data-name="Path 7337" d="M0,5A5,5,0,0,1,5,0H17.115a20,20,0,0,1,20,20V40.611a5,5,0,0,1-5,5H20a20,20,0,0,1-20-20Z" fill="#1795a8" opacity="0.2"/>
  <g id="arm-wrestling" transform="translate(20.632 -19.533)">
    <path id="Path_7454" data-name="Path 7454" d="M427.117,250.463a.942.942,0,0,1-.667-.276l-4.984-4.968a.945.945,0,0,1,1.335-1.339l4.984,4.968a.945.945,0,0,1-.667,1.615Z" transform="translate(-384.992 -195.675)" fill="#1795a8"/>
    <path id="Path_7455" data-name="Path 7455" d="M253.569,386.793a.942.942,0,0,1-.668-.277l-4.65-4.65a4.437,4.437,0,0,0-2.238-1.139.945.945,0,0,1,.468-1.832,6.3,6.3,0,0,1,3.107,1.634l4.65,4.65a.945.945,0,0,1-.668,1.614Z" transform="translate(-224.221 -319.311)" fill="#1795a8"/>
    <path id="Path_7456" data-name="Path 7456" d="M12.066,250.745a.945.945,0,0,1-.668-1.615l4.984-4.97a.945.945,0,1,1,1.335,1.339l-4.984,4.97A.943.943,0,0,1,12.066,250.745Z" transform="translate(-10.165 -195.931)" fill="#1795a8"/>
    <path id="Path_7457" data-name="Path 7457" d="M164.351,67.23l-1.337-1.337,4.676-4.676a7.266,7.266,0,0,1,3.9-1.822,9.7,9.7,0,0,0,5.455-2.854c3.4-3.4,11.031-10.884,11.245-11.094a1.727,1.727,0,0,0-2.445-2.44.945.945,0,1,1-1.337-1.337h0l.012-.012a1.724,1.724,0,0,0-1.232-2.933h0a1.715,1.715,0,0,0-1.219.5.945.945,0,0,1-1.337-1.337,1.727,1.727,0,0,0-2.442-2.442l-.256.257h0a.945.945,0,0,1-1.337-1.337l0,0a1.727,1.727,0,0,0-2.445-2.439L171.7,34.473a.945.945,0,0,1-1.335-1.339l2.553-2.546a3.616,3.616,0,0,1,6.172,2.491,3.7,3.7,0,0,1,.42-.024,3.609,3.609,0,0,1,3.612,3.783c.056,0,.112,0,.169,0a3.606,3.606,0,0,1,3.613,3.614q0,.084,0,.167a3.617,3.617,0,0,1,2.727,6.17l-.007.006c-.078.076-7.808,7.658-11.236,11.085a11.582,11.582,0,0,1-6.369,3.36,5.539,5.539,0,0,0-2.983,1.316Z" transform="translate(-149.005)" fill="#1795a8"/>
    <path id="Path_7458" data-name="Path 7458" d="M15.633,307.15a.942.942,0,0,1-.666-.275L.279,292.283a.945.945,0,1,1,1.333-1.341L16.3,305.534a.945.945,0,0,1-.666,1.616Z" transform="translate(0 -238.693)" fill="#1795a8"/>
    <path id="Path_7459" data-name="Path 7459" d="M320.03,307.15a.945.945,0,0,1-.666-1.616l14.688-14.592a.945.945,0,0,1,1.333,1.341L320.7,306.875A.943.943,0,0,1,320.03,307.15Z" transform="translate(-291.664 -238.693)" fill="#1795a8"/>
    <path id="Path_7460" data-name="Path 7460" d="M83.3,129.734a3.606,3.606,0,0,1-2.558-1.058L76.5,124.429a3.618,3.618,0,0,1,5.116-5.116l4.247,4.247h0a3.616,3.616,0,0,1-2.558,6.174Zm-4.247-9.589a1.729,1.729,0,0,0-1.221,2.947l4.247,4.247a1.727,1.727,0,1,0,2.442-2.442l-4.247-4.247A1.722,1.722,0,0,0,79.056,120.145Z" transform="translate(-68.959 -81.097)" fill="#1795a8"/>
    <path id="Path_7461" data-name="Path 7461" d="M170.609,41.174a3.606,3.606,0,0,1-2.558-1.058l-4.306-4.307a3.618,3.618,0,0,1,5.116-5.116L173.167,35h0a3.616,3.616,0,0,1-2.558,6.174ZM166.3,31.528a1.724,1.724,0,0,0-1.221,2.945l4.306,4.307a1.727,1.727,0,0,0,2.442-2.442l-4.306-4.306A1.714,1.714,0,0,0,166.3,31.528Z" transform="translate(-148.706 -0.095)" fill="#1795a8"/>
    <path id="Path_7462" data-name="Path 7462" d="M41.6,175.978a3.592,3.592,0,0,1-2.558-1.056l-4.034-4.034a3.618,3.618,0,0,1,5.116-5.116l4.034,4.034a3.614,3.614,0,0,1-2.558,6.172ZM37.566,166.6a1.729,1.729,0,0,0-1.221,2.947l4.034,4.034a1.727,1.727,0,1,0,2.442-2.442h0l-4.034-4.034A1.722,1.722,0,0,0,37.566,166.6Z" transform="translate(-31.034 -123.564)" fill="#1795a8"/>
    <path id="Path_7463" data-name="Path 7463" d="M126.65,85.145a3.592,3.592,0,0,1-2.558-1.057l-4.306-4.306a3.618,3.618,0,0,1,5.116-5.116l4.306,4.307a3.614,3.614,0,0,1-2.558,6.172ZM122.343,75.5a1.727,1.727,0,0,0-1.221,2.945l4.307,4.306a1.727,1.727,0,0,0,2.442-2.442h0L123.564,76A1.714,1.714,0,0,0,122.343,75.5Z" transform="translate(-108.526 -40.289)" fill="#1795a8"/>
  </g>
</svg>
