<svg id="icon-2" xmlns="http://www.w3.org/2000/svg" width="63" height="50" viewBox="0 0 63 50">
  <path id="Path_7337" data-name="Path 7337" d="M0,5A5,5,0,0,1,5,0H17.115a20,20,0,0,1,20,20V40.611a5,5,0,0,1-5,5H20a20,20,0,0,1-20-20Z" fill="#1795a8" opacity="0.2"/>
  <g id="teach" transform="translate(19 6)">
    <g id="Group_6731" data-name="Group 6731" transform="translate(27.634 5.264)">
      <path id="Path_7474" data-name="Path 7474" d="M327.771,68.4h-5.264a.945.945,0,0,1-.945-.945V62.2a.945.945,0,0,1,.945-.945h5.264a.945.945,0,0,1,.945.945v5.264A.945.945,0,0,1,327.771,68.4Zm-4.318-1.891h3.373V63.141h-3.373Z" transform="translate(-321.562 -61.25)" fill="#1795a8"/>
    </g>
    <g id="Group_6732" data-name="Group 6732" transform="translate(30.924 21.055)">
      <path id="Path_7475" data-name="Path 7475" d="M364.363,250.391v-4.446a.945.945,0,0,0-1.891,0v4.446a3.577,3.577,0,1,0,1.891,0Zm-.945,5.136a1.687,1.687,0,1,1,1.686-1.686A1.689,1.689,0,0,1,363.418,255.527Z" transform="translate(-359.84 -245)" fill="#1795a8"/>
    </g>
    <g id="Group_6733" data-name="Group 6733" transform="translate(17.107 5.264)">
      <path id="Path_7476" data-name="Path 7476" d="M200.007,65.772a.945.945,0,0,1-.945-.945V62.2a.945.945,0,0,1,1.891,0v2.632A.945.945,0,0,1,200.007,65.772Z" transform="translate(-199.062 -61.25)" fill="#1795a8"/>
    </g>
    <g id="Group_6734" data-name="Group 6734" transform="translate(22.371 5.264)">
      <path id="Path_7477" data-name="Path 7477" d="M261.257,68.4a.945.945,0,0,1-.945-.945V62.2a.945.945,0,0,1,1.891,0v5.264A.945.945,0,0,1,261.257,68.4Z" transform="translate(-260.312 -61.25)" fill="#1795a8"/>
    </g>
    <g id="Group_6735" data-name="Group 6735">
      <path id="Path_7478" data-name="Path 7478" d="M43.055,0H8.841a.945.945,0,0,0,0,1.891h3v11.36A4.892,4.892,0,0,0,9.659,21.81a6.874,6.874,0,0,0-3.737,6.111v.371H.945A.945.945,0,0,0,0,29.238V34.5a.945.945,0,0,0,.945.945H4.128l1.662,7.8A.945.945,0,0,0,6.715,44H18.862a.946.946,0,0,0,.925-.749l1.65-7.8h3.194a.945.945,0,0,0,.945-.945V29.238a.945.945,0,0,0-.945-.945H19.656v-.371a6.821,6.821,0,0,0-2.012-4.855l-.124-.12H39.107A.945.945,0,0,0,40.052,22V1.891h3a.945.945,0,0,0,0-1.891ZM12.789,15.049a3,3,0,0,1,0,6.005h0a3,3,0,0,1,0-6.005ZM18.1,42.109H13.734V39.765a.945.945,0,0,0-1.891,0v2.344H7.48L6.061,35.447H19.505Zm5.59-11.926v3.373H1.891V30.183Zm-5.921-2.262v.371H7.813v-.371a4.976,4.976,0,0,1,9.952,0Zm20.4-6.866H16.65a4.891,4.891,0,0,0-2.916-7.8V1.891H38.161Z" fill="#1795a8"/>
    </g>
  </g>
</svg>
