<svg id="icon-2" xmlns="http://www.w3.org/2000/svg" width="59.631" height="49.227" viewBox="0 0 59.631 49.227">
  <path id="Path_7337" data-name="Path 7337" d="M0,5A5,5,0,0,1,5,0H17.115a20,20,0,0,1,20,20V40.611a5,5,0,0,1-5,5H20a20,20,0,0,1-20-20Z" fill="#1795a8" opacity="0.2"/>
  <g id="shield" transform="translate(-26.216 6.592)">
    <g id="Group_6723" data-name="Group 6723" transform="translate(51.847)">
      <g id="Group_6722" data-name="Group 6722" transform="translate(0)">
        <g id="Group_6721" data-name="Group 6721">
          <g id="Group_6720" data-name="Group 6720">
            <g id="Group_6719" data-name="Group 6719">
              <g id="Group_6718" data-name="Group 6718">
                <g id="Group_6717" data-name="Group 6717">
                  <g id="Group_6716" data-name="Group 6716">
                    <g id="Group_6714" data-name="Group 6714">
                      <path id="Path_7451" data-name="Path 7451" d="M68.847,42.635a.915.915,0,0,1-.317-.057A25.5,25.5,0,0,1,51.847,18.652V4.3a.916.916,0,0,1,.561-.844,40.807,40.807,0,0,1,32.879,0,.916.916,0,0,1,.56.844v14.35A25.5,25.5,0,0,1,69.164,42.578.916.916,0,0,1,68.847,42.635ZM53.679,4.915V18.652A23.756,23.756,0,0,0,68.847,40.74,23.756,23.756,0,0,0,84.015,18.652V4.915A39.071,39.071,0,0,0,53.679,4.915Z" transform="translate(-51.847)" fill="#1795a8"/>
                    </g>
                    <g id="Group_6715" data-name="Group 6715" transform="translate(5.079 5.079)">
                      <path id="Path_7452" data-name="Path 7452" d="M124.764,93.038a.916.916,0,0,1-.4-.092,20.5,20.5,0,0,1-11.521-18.377V63.735a.916.916,0,0,1,.63-.87,35.046,35.046,0,0,1,22.582,0,.916.916,0,0,1,.63.87V74.569a20.5,20.5,0,0,1-11.521,18.377A.916.916,0,0,1,124.764,93.038ZM114.675,64.4V74.569A18.712,18.712,0,0,0,124.764,91.1a18.712,18.712,0,0,0,10.089-16.529V64.4a33.079,33.079,0,0,0-20.178,0Z" transform="translate(-112.843 -60.996)" fill="#1795a8"/>
                    </g>
                  </g>
                </g>
              </g>
            </g>
          </g>
        </g>
      </g>
    </g>
    <g id="Group_6725" data-name="Group 6725" transform="translate(62.843 16.55)">
      <g id="Group_6724" data-name="Group 6724">
        <path id="Path_7453" data-name="Path 7453" d="M187.808,207.762a.916.916,0,0,1-.648-.268l-2.993-2.993a.916.916,0,0,1,1.3-1.3l2.345,2.345,6.535-6.535a.916.916,0,1,1,1.3,1.3l-7.183,7.183A.916.916,0,0,1,187.808,207.762Z" transform="translate(-183.899 -198.747)" fill="#1795a8"/>
      </g>
    </g>
  </g>
</svg>
