<svg id="icon-2" xmlns="http://www.w3.org/2000/svg" width="61" height="51" viewBox="0 0 61 51">
  <path id="Path_7337" data-name="Path 7337" d="M0,5A5,5,0,0,1,5,0H17.115a20,20,0,0,1,20,20V40.611a5,5,0,0,1-5,5H20a20,20,0,0,1-20-20Z" fill="#1795a8" opacity="0.2"/>
  <g id="connection" transform="translate(17 7)">
    <path id="Path_7479" data-name="Path 7479" d="M44,8.643A8.639,8.639,0,0,0,28.874,2.934a17.028,17.028,0,0,0-13.749,0A8.641,8.641,0,1,0,5.093,16.523a17.15,17.15,0,0,0-.117,1.985A17.012,17.012,0,0,0,13.6,33.316a8.643,8.643,0,1,0,16.8,0,17.012,17.012,0,0,0,8.508-16.793A8.655,8.655,0,0,0,44,8.643ZM22,21.04a2.532,2.532,0,1,1,2.532-2.532A2.535,2.535,0,0,1,22,21.04ZM1.921,8.643a6.722,6.722,0,1,1,6.722,6.722A6.73,6.73,0,0,1,1.921,8.643ZM6.9,18.508c0-.461.023-.925.065-1.387A8.641,8.641,0,0,0,16.248,4.541,14.884,14.884,0,0,1,21.04,3.435V14.161a4.451,4.451,0,0,0-3.285,5.689l-9.3,5.367A15.1,15.1,0,0,1,6.9,18.508ZM22,42.079a6.722,6.722,0,1,1,6.722-6.722A6.73,6.73,0,0,1,22,42.079Zm7.726-10.593a8.64,8.64,0,0,0-15.451,0,15.087,15.087,0,0,1-4.856-4.6l9.3-5.368a4.445,4.445,0,0,0,6.566,0l9.3,5.368A15.084,15.084,0,0,1,29.726,31.486ZM37.1,18.508a15.108,15.108,0,0,1-1.561,6.709l-9.3-5.367a4.452,4.452,0,0,0-3.285-5.689V3.436a14.89,14.89,0,0,1,4.791,1.105,8.643,8.643,0,0,0,9.286,12.58C37.08,17.583,37.1,18.047,37.1,18.508Zm-1.746-3.143a6.722,6.722,0,1,1,6.722-6.722A6.73,6.73,0,0,1,35.357,15.365Z" fill="#1795a8"/>
    <path id="Path_7480" data-name="Path 7480" d="M199.693,367.91a3.754,3.754,0,1,0-6.14,0,4.431,4.431,0,0,0-2.227,1.975,6.777,6.777,0,0,0,1.483,1.4,2.52,2.52,0,0,1,2.417-1.777h2.794a2.52,2.52,0,0,1,2.418,1.777,6.777,6.777,0,0,0,1.482-1.4A4.43,4.43,0,0,0,199.693,367.91Zm-3.07-3.989a1.833,1.833,0,1,1-1.833,1.833A1.835,1.835,0,0,1,196.623,363.921Z" transform="translate(-174.623 -330.397)" fill="#1795a8"/>
    <path id="Path_7481" data-name="Path 7481" d="M46.688,61.91a3.754,3.754,0,1,0-6.14,0,4.431,4.431,0,0,0-2.228,1.975,6.778,6.778,0,0,0,1.483,1.4,2.521,2.521,0,0,1,2.418-1.777h2.794a2.52,2.52,0,0,1,2.418,1.777,6.779,6.779,0,0,0,1.482-1.4A4.431,4.431,0,0,0,46.688,61.91Zm-3.07-3.99a1.833,1.833,0,1,1-1.833,1.833A1.835,1.835,0,0,1,43.617,57.921Z" transform="translate(-34.975 -51.111)" fill="#1795a8"/>
    <path id="Path_7482" data-name="Path 7482" d="M352.619,61.883a3.754,3.754,0,1,0-6.14.054,4.431,4.431,0,0,0-2.16,1.947,6.78,6.78,0,0,0,1.483,1.4,2.52,2.52,0,0,1,2.418-1.777h2.794a2.52,2.52,0,0,1,2.418,1.777,6.778,6.778,0,0,0,1.482-1.4A4.43,4.43,0,0,0,352.619,61.883Zm-3.09-3.963a1.833,1.833,0,1,1-1.833,1.833A1.835,1.835,0,0,1,349.529,57.921Z" transform="translate(-314.259 -51.111)" fill="#1795a8"/>
  </g>
</svg>
