<svg id="Group_9004" data-name="Group 9004" xmlns="http://www.w3.org/2000/svg" width="55.19" height="38.39" viewBox="0 0 55.19 38.39">
  <path id="Path_6528" data-name="Path 6528" d="M52.17,0H3.03A3.034,3.034,0,0,0,0,3.03V35.36a3.034,3.034,0,0,0,3.03,3.03H52.16a3.041,3.041,0,0,0,3.03-3.03V3.03A3.026,3.026,0,0,0,52.17,0Z" fill="#00008b"/>
  <path id="Path_6529" data-name="Path 6529" d="M16.07,22.94l1.01,3.16,3.11-1.18L18.35,27.7l2.86,1.69-3.31.29.46,3.3-2.29-2.42-2.3,2.42.46-3.3-3.31-.29,2.86-1.69-1.84-2.78,3.11,1.18Z" fill="#fff" fill-rule="evenodd"/>
  <path id="Path_6530" data-name="Path 6530" d="M43.16,28.64l.48,1.5,1.48-.56-.87,1.32,1.36.81-1.58.14.22,1.57-1.09-1.15-1.09,1.15.21-1.57-1.57-.14,1.36-.81-.88-1.32,1.48.56Z" fill="#fff" fill-rule="evenodd"/>
  <path id="Path_6531" data-name="Path 6531" d="M43.16,5.17l.48,1.5,1.48-.56-.87,1.32,1.36.81-1.58.14.22,1.57L43.16,8.8,42.07,9.95l.21-1.57-1.57-.14,1.36-.81-.88-1.32,1.48.56Z" fill="#fff" fill-rule="evenodd"/>
  <path id="Path_6532" data-name="Path 6532" d="M36.25,14.7l.49,1.51,1.48-.56-.88,1.32,1.36.81-1.57.13.21,1.57-1.09-1.15-1.09,1.15.22-1.57-1.58-.13,1.36-.81-.87-1.32,1.48.56Z" fill="#fff" fill-rule="evenodd"/>
  <path id="Path_6533" data-name="Path 6533" d="M50.98,12.35l.49,1.51,1.48-.56-.88,1.32,1.36.81-1.57.14.21,1.56-1.09-1.14-1.09,1.14.22-1.56-1.58-.14,1.36-.81-.87-1.32,1.48.56Z" fill="#fff" fill-rule="evenodd"/>
  <path id="Path_6534" data-name="Path 6534" d="M46.68,19.42l.38.94,1.01.07-.77.65.24.99-.86-.53-.86.53.24-.99-.78-.65,1.02-.07Z" fill="#fff" fill-rule="evenodd"/>
  <path id="Path_6535" data-name="Path 6535" d="M.23,1.87,27.85,15.68h3.51V13.93L3.51,0H3.03A3.046,3.046,0,0,0,.23,1.87ZM31.36,0V1.75L3.51,15.68H0V13.93L27.85,0Z" fill="#fff"/>
  <path id="Path_6536" data-name="Path 6536" d="M13.07,0V15.68H18.3V0ZM0,5.23v5.23H31.36V5.23Z" fill="#fff"/>
  <path id="Path_6537" data-name="Path 6537" d="M0,6.27V9.41H31.36V6.27ZM14.11,0V15.68h3.14V0Z" fill="red"/>
  <path id="Path_6538" data-name="Path 6538" d="M0,15.68l10.45-5.23h2.34L2.34,15.68ZM.48,1.41a3.136,3.136,0,0,1,.74-.8l9.24,4.62H8.12L.48,1.41ZM18.57,5.23,29.02,0h2.34L20.9,5.23ZM31.36,15.68,20.9,10.45h2.34l8.11,4.06v1.17Z" fill="red"/>
</svg>
