<svg xmlns="http://www.w3.org/2000/svg" xmlns:xlink="http://www.w3.org/1999/xlink" width="100" height="98.037" viewBox="0 0 100 98.037">
  <defs>
    <clipPath id="clip-path">
      <path id="Path_6534" data-name="Path 6534" d="M120.6,66.51a17.977,17.977,0,1,1-17.977-17.977A17.977,17.977,0,0,1,120.6,66.51Z" transform="translate(-84.647 -48.533)" fill="#e4393d"/>
    </clipPath>
    <clipPath id="clip-path-2">
      <circle id="Ellipse_14" data-name="Ellipse 14" cx="17.977" cy="17.977" r="17.977" transform="matrix(0.331, -0.944, 0.944, 0.331, 0, 33.927)" fill="#23ad9b"/>
    </clipPath>
    <clipPath id="clip-path-3">
      <path id="Path_6568" data-name="Path 6568" d="M174.594,151.024a17.977,17.977,0,1,1-17.977-17.977A17.977,17.977,0,0,1,174.594,151.024Z" transform="translate(-138.64 -133.047)" fill="#fe9d2b"/>
    </clipPath>
    <clipPath id="clip-path-4">
      <path id="Path_6585" data-name="Path 6585" d="M81.052,174.064a17.977,17.977,0,1,1-17.978-17.978A17.977,17.977,0,0,1,81.052,174.064Z" transform="translate(-45.099 -156.086)" fill="#55b2b0"/>
    </clipPath>
    <clipPath id="clip-path-5">
      <circle id="Ellipse_16" data-name="Ellipse 16" cx="17.977" cy="17.977" r="17.977" fill="#f26b3b"/>
    </clipPath>
    <clipPath id="clip-path-6">
      <path id="Path_6615" data-name="Path 6615" d="M174.592,254.132a17.977,17.977,0,1,1-17.977-17.978A17.977,17.977,0,0,1,174.592,254.132Z" transform="translate(-138.638 -236.154)" fill="#e4393d"/>
    </clipPath>
  </defs>
  <g id="Group" transform="translate(-45.099 -32.202)">
    <g id="Group_5343" data-name="Group 5343" transform="translate(45.099 32.202)">
      <g id="Group_5337" data-name="Group 5337" transform="translate(0 4.971)">
        <g id="Group_5291" data-name="Group 5291" transform="translate(12.038 0.001)" style="mix-blend-mode: multiply;isolation: isolate">
          <g id="Group_5290" data-name="Group 5290">
            <path id="Path_6511" data-name="Path 6511" d="M120.6,66.51a17.977,17.977,0,1,1-17.977-17.977A17.977,17.977,0,0,1,120.6,66.51Z" transform="translate(-84.647 -48.533)" fill="#e4393d"/>
            <g id="Group_5289" data-name="Group 5289" clip-path="url(#clip-path)">
              <g id="Group_5288" data-name="Group 5288" transform="translate(7.834 6.292)">
                <rect id="Rectangle_212" data-name="Rectangle 212" width="3.537" height="2.104" transform="translate(8.748 20.098)" fill="#faa47a"/>
                <path id="Path_6512" data-name="Path 6512" d="M141.359,137.05a1.86,1.86,0,0,1-1.457-1.515.744.744,0,0,1,.03-.307h-.813v2.1h3.537v-.264A2.39,2.39,0,0,1,141.359,137.05Z" transform="translate(-130.371 -115.13)" fill="#c7c9cb" style="mix-blend-mode: multiply;isolation: isolate"/>
                <g id="Group_5282" data-name="Group 5282" transform="translate(16.106 11.775)">
                  <path id="Path_6513" data-name="Path 6513" d="M166.554,109.46a1.632,1.632,0,1,1-1.63-1.575A1.6,1.6,0,0,1,166.554,109.46Z" transform="translate(-163.293 -107.885)" fill="#faa47a"/>
                  <g id="Group_5281" data-name="Group 5281" transform="translate(1.841 0.694)" style="mix-blend-mode: multiply;isolation: isolate">
                    <path id="Path_6514" data-name="Path 6514" d="M169.342,110.171a.656.656,0,0,1,.109,0,.912.912,0,0,1,.289.057.706.706,0,0,1,.346.266,1.124,1.124,0,0,1,.061.114c.015.04.026.083.038.126l.014.131c0,.043,0,.086-.005.129a1.109,1.109,0,0,1-.052.245,1.03,1.03,0,0,1-.1.221.8.8,0,0,1-.306.3.722.722,0,0,1-.156.065.867.867,0,0,1-.129.021c-.069,0-.109,0-.109,0l.1-.041c.032-.012.066-.035.106-.054a.928.928,0,0,0,.12-.09.77.77,0,0,0,.115-.128.947.947,0,0,0,.1-.164,1.5,1.5,0,0,0,.069-.192.909.909,0,0,0,.037-.21l.008-.1-.007-.1c-.008-.031-.015-.063-.022-.093a.691.691,0,0,0-.036-.086.7.7,0,0,0-.24-.254,1.459,1.459,0,0,0-.244-.125C169.38,110.182,169.342,110.171,169.342,110.171Z" transform="translate(-169.342 -110.167)" fill="#c7c9cb"/>
                  </g>
                  <path id="Path_6515" data-name="Path 6515" d="M168.827,112.616a.267.267,0,1,1-.263-.305A.287.287,0,0,1,168.827,112.616Z" transform="translate(-166.775 -110.964)" fill="#c7c9cb" style="mix-blend-mode: multiply;isolation: isolate"/>
                </g>
                <g id="Group_5284" data-name="Group 5284" transform="translate(1.888 11.775)">
                  <path id="Path_6516" data-name="Path 6516" d="M116.583,109.46a1.631,1.631,0,1,0,1.629-1.575A1.6,1.6,0,0,0,116.583,109.46Z" transform="translate(-116.583 -107.885)" fill="#faa47a"/>
                  <g id="Group_5283" data-name="Group 5283" transform="translate(0.563 0.694)" style="mix-blend-mode: multiply;isolation: isolate">
                    <path id="Path_6517" data-name="Path 6517" d="M119.289,110.171a.672.672,0,0,0-.11,0,.915.915,0,0,0-.288.057.715.715,0,0,0-.347.266c-.022.035-.039.075-.06.114s-.026.083-.037.126l-.013.131c0,.043,0,.086,0,.129a1.141,1.141,0,0,0,.051.245,1.063,1.063,0,0,0,.1.221.822.822,0,0,0,.306.3.7.7,0,0,0,.158.065.835.835,0,0,0,.127.021c.072,0,.11,0,.11,0l-.1-.041c-.032-.012-.066-.035-.107-.054a.928.928,0,0,1-.12-.09.8.8,0,0,1-.115-.128.873.873,0,0,1-.1-.164,1.235,1.235,0,0,1-.07-.192.978.978,0,0,1-.036-.21l-.008-.1.007-.1c.008-.031.015-.063.021-.093s.021-.059.036-.086a.713.713,0,0,1,.242-.254,1.392,1.392,0,0,1,.244-.125C119.251,110.182,119.289,110.171,119.289,110.171Z" transform="translate(-118.433 -110.167)" fill="#c7c9cb"/>
                  </g>
                  <path id="Path_6518" data-name="Path 6518" d="M120.556,112.616a.267.267,0,1,0,.265-.305A.287.287,0,0,0,120.556,112.616Z" transform="translate(-119.347 -110.964)" fill="#c7c9cb" style="mix-blend-mode: multiply;isolation: isolate"/>
                </g>
                <path id="Path_6519" data-name="Path 6519" d="M135.645,84.107c0,5.349-2.51,9.1-7.221,9.1s-7.222-3.756-7.222-9.1,2.606-9.685,7.318-9.685S135.645,78.758,135.645,84.107Z" transform="translate(-117.908 -72.833)" fill="#faa47a"/>
                <path id="Path_6520" data-name="Path 6520" d="M119.2,141.852s-4.486.593-6.1,1.988c-1.643,1.422-2.129,2.652-2.72,5.461h21.032c-.592-2.809-1.078-4.039-2.721-5.461-1.612-1.4-6.1-1.988-6.1-1.988Z" transform="translate(-110.382 -119.737)" fill="#faa47a"/>
                <path id="Path_6521" data-name="Path 6521" d="M117.845,142.083s-3.13.362-4.743,1.757c-1.643,1.422-2.129,2.652-2.72,5.461h21.032c-.592-2.809-1.069-4.049-2.721-5.461-1.362-1.164-4.425-1.692-4.425-1.692l-1.673-.3H119.2Z" transform="translate(-110.382 -119.737)" fill="#fff"/>
                <g id="Group_5285" data-name="Group 5285" transform="translate(9.098 22.009)">
                  <path id="Path_6522" data-name="Path 6522" d="M140.848,144.343a.317.317,0,0,1,.059-.061c-.019.02-.04.039-.059.061l-.578,4.717h2.837l-.578-4.717.391-1.621a.731.731,0,0,0,.039-.768.853.853,0,0,0-.529-.395,4.235,4.235,0,0,0-1.078-.037.932.932,0,0,0-.833.307.711.711,0,0,0-.059.893Z" transform="translate(-140.27 -141.506)" fill="#e4393d"/>
                  <path id="Path_6523" data-name="Path 6523" d="M141.955,149.579s1.176-.549,1.741.252a1.874,1.874,0,0,0-1.68,0Z" transform="translate(-141.442 -146.994)" fill="#aeb0b3" style="mix-blend-mode: multiply;isolation: isolate"/>
                </g>
                <path id="Path_6524" data-name="Path 6524" d="M117.845,142.611s-3.13.362-4.743,1.757c-1.643,1.422-2.129,2.652-2.72,5.461h21.032c-.592-2.809-1.069-4.049-2.721-5.461-1.362-1.164-4.425-1.692-4.425-1.692l-3.37,6.961Z" transform="translate(-110.382 -120.265)" fill="#002d43"/>
                <path id="Path_6525" data-name="Path 6525" d="M128.067,142.758l3.011,6.977-3.2-2.068.72-1.237-3.58-2.957A10.312,10.312,0,0,1,128.067,142.758Z" transform="translate(-120.563 -120.364)" fill="#001221"/>
                <path id="Path_6526" data-name="Path 6526" d="M148.3,142.813l-3.369,6.961,3.2-2.068-.72-1.237,3.581-2.957A7.467,7.467,0,0,0,148.3,142.813Z" transform="translate(-134.414 -120.402)" fill="#001221"/>
                <path id="Path_6527" data-name="Path 6527" d="M132.835,142.808l2.708,1.888-.226-.944Z" transform="translate(-126 -120.402)" fill="#96999c" style="mix-blend-mode: multiply;isolation: isolate"/>
                <path id="Path_6528" data-name="Path 6528" d="M151.082,142.919l-2.969,1.893.259-1.1Z" transform="translate(-136.628 -120.48)" fill="#96999c" style="mix-blend-mode: multiply;isolation: isolate"/>
                <g id="Group_5286" data-name="Group 5286" transform="translate(6.835 21.492)">
                  <path id="Path_6529" data-name="Path 6529" d="M134.748,139.806l-1.913.914,2.263,1.352,1.583-1.747Z" transform="translate(-132.835 -139.806)" fill="#fff"/>
                  <path id="Path_6530" data-name="Path 6530" d="M134.72,140.478a1.384,1.384,0,0,1,1-.411l-.973-.261-1.913.914,1.708,1.02A1.015,1.015,0,0,1,134.72,140.478Z" transform="translate(-132.835 -139.806)" fill="#c7c9cb" style="mix-blend-mode: multiply;isolation: isolate"/>
                </g>
                <g id="Group_5287" data-name="Group 5287" transform="translate(10.645 21.492)">
                  <path id="Path_6531" data-name="Path 6531" d="M147.287,139.806l1.912.914-2.262,1.352-1.583-1.747Z" transform="translate(-145.354 -139.806)" fill="#fff"/>
                  <path id="Path_6532" data-name="Path 6532" d="M149.511,140.478a1.383,1.383,0,0,0-1-.411l.973-.261,1.912.914-1.707,1.02A1.018,1.018,0,0,0,149.511,140.478Z" transform="translate(-147.549 -139.806)" fill="#c7c9cb" style="mix-blend-mode: multiply;isolation: isolate"/>
                </g>
                <path id="Path_6533" data-name="Path 6533" d="M120.3,81.779l.731.732.141-5.89a3.115,3.115,0,0,1,3.3-3.059,8.28,8.28,0,0,0,6.062.24,2.893,2.893,0,0,1,3.395,2.675l-.025,6.152.777-.958.043-.8a23.9,23.9,0,0,0,0-6.408s-.611-4.221-4.426-4.937c0,0-6.23-1.6-8.856,2.319a7.949,7.949,0,0,0-1.475,6Z" transform="translate(-116.989 -69.202)" fill="#814600"/>
              </g>
            </g>
          </g>
        </g>
        <g id="Group_5302" data-name="Group 5302" transform="translate(54.172 27.803)" style="mix-blend-mode: multiply;isolation: isolate">
          <g id="Group_5301" data-name="Group 5301">
            <circle id="Ellipse_13" data-name="Ellipse 13" cx="17.977" cy="17.977" r="17.977" transform="matrix(0.331, -0.944, 0.944, 0.331, 0, 33.927)" fill="#23ad9b"/>
            <g id="Group_5300" data-name="Group 5300" clip-path="url(#clip-path-2)">
              <g id="Group_5299" data-name="Group 5299" transform="translate(12.397 7.911)">
                <rect id="Rectangle_213" data-name="Rectangle 213" width="3.537" height="2.103" transform="translate(8.749 23.514)" fill="#faa47a"/>
                <path id="Path_6535" data-name="Path 6535" d="M292.733,244.677a2.4,2.4,0,0,1,1.545-.7c.5-.038,1.368.07,1.636-.457a.581.581,0,0,1,.152-.193v-.224H292.53v1.816A1.781,1.781,0,0,1,292.733,244.677Z" transform="translate(-283.782 -219.593)" fill="#aeb0b3" style="mix-blend-mode: multiply;isolation: isolate"/>
                <g id="Group_5293" data-name="Group 5293" transform="translate(16.108 15.191)">
                  <path id="Path_6536" data-name="Path 6536" d="M319.967,217.337a1.631,1.631,0,1,1-1.63-1.574A1.6,1.6,0,0,1,319.967,217.337Z" transform="translate(-316.706 -215.763)" fill="#faa47a"/>
                  <g id="Group_5292" data-name="Group 5292" transform="translate(1.84 0.694)" style="mix-blend-mode: multiply;isolation: isolate">
                    <path id="Path_6537" data-name="Path 6537" d="M322.752,218.049a.624.624,0,0,1,.11,0,.9.9,0,0,1,.289.057.711.711,0,0,1,.347.266,1.282,1.282,0,0,1,.061.114c.014.04.027.083.037.125l.013.131c0,.043,0,.086,0,.13a1.169,1.169,0,0,1-.052.246,1.068,1.068,0,0,1-.1.221.814.814,0,0,1-.306.3.665.665,0,0,1-.157.064.866.866,0,0,1-.127.021c-.072,0-.11,0-.11,0l.1-.041c.031-.012.065-.035.106-.055a.941.941,0,0,0,.119-.09.8.8,0,0,0,.115-.127,1.03,1.03,0,0,0,.1-.165,1.3,1.3,0,0,0,.069-.192.932.932,0,0,0,.037-.21l.009-.1-.008-.1c-.008-.031-.014-.062-.021-.093s-.021-.06-.036-.086a.708.708,0,0,0-.242-.253,1.429,1.429,0,0,0-.243-.124C322.791,218.06,322.752,218.049,322.752,218.049Z" transform="translate(-322.752 -218.044)" fill="#c7c9cb"/>
                  </g>
                  <path id="Path_6538" data-name="Path 6538" d="M322.236,220.493a.267.267,0,1,1-.264-.305A.286.286,0,0,1,322.236,220.493Z" transform="translate(-320.185 -218.841)" fill="#c7c9cb" style="mix-blend-mode: multiply;isolation: isolate"/>
                </g>
                <g id="Group_5295" data-name="Group 5295" transform="translate(1.888 15.191)">
                  <path id="Path_6539" data-name="Path 6539" d="M269.993,217.337a1.631,1.631,0,1,0,1.63-1.574A1.6,1.6,0,0,0,269.993,217.337Z" transform="translate(-269.993 -215.763)" fill="#faa47a"/>
                  <g id="Group_5294" data-name="Group 5294" transform="translate(0.563 0.694)" style="mix-blend-mode: multiply;isolation: isolate">
                    <path id="Path_6540" data-name="Path 6540" d="M272.7,218.049a.614.614,0,0,0-.109,0,.9.9,0,0,0-.289.057.711.711,0,0,0-.347.266c-.023.035-.04.075-.061.114s-.026.083-.038.125l-.013.131c0,.043,0,.086.005.13a1.148,1.148,0,0,0,.05.246,1.118,1.118,0,0,0,.1.221.821.821,0,0,0,.306.3.679.679,0,0,0,.157.064.873.873,0,0,0,.128.021c.07,0,.109,0,.109,0l-.1-.041c-.031-.012-.065-.035-.106-.055a1.065,1.065,0,0,1-.119-.09.855.855,0,0,1-.115-.127.966.966,0,0,1-.1-.165,1.255,1.255,0,0,1-.069-.192.986.986,0,0,1-.037-.21l-.007-.1.006-.1c.009-.031.016-.062.022-.093s.021-.06.036-.086a.706.706,0,0,1,.243-.253,1.382,1.382,0,0,1,.242-.124C272.661,218.06,272.7,218.049,272.7,218.049Z" transform="translate(-271.842 -218.044)" fill="#c7c9cb"/>
                  </g>
                  <path id="Path_6541" data-name="Path 6541" d="M273.967,220.493a.267.267,0,1,0,.263-.305A.286.286,0,0,0,273.967,220.493Z" transform="translate(-272.757 -218.841)" fill="#c7c9cb" style="mix-blend-mode: multiply;isolation: isolate"/>
                </g>
                <path id="Path_6542" data-name="Path 6542" d="M289.058,191.985c0,5.349-2.51,9.1-7.222,9.1s-7.222-3.756-7.222-9.1,2.605-9.685,7.317-9.685S289.058,186.636,289.058,191.985Z" transform="translate(-271.32 -177.295)" fill="#faa47a"/>
                <path id="Path_6543" data-name="Path 6543" d="M272.61,249.728s-4.486.594-6.1,1.989c-1.643,1.422-2.129,2.651-2.721,5.461h21.033c-.592-2.81-1.078-4.038-2.722-5.461-1.612-1.4-6.1-1.989-6.1-1.989Z" transform="translate(-263.79 -224.198)" fill="#faa47a"/>
                <path id="Path_6544" data-name="Path 6544" d="M277.74,250.74a9.191,9.191,0,0,1,4.361,1.679c1.644,1.422,2.13,2.651,2.722,5.461H263.79c.592-2.81,1.078-4.038,2.721-5.461a9.237,9.237,0,0,1,4.373-1.682,3.227,3.227,0,0,0,3.573,3.8S277.9,254.676,277.74,250.74Z" transform="translate(-263.79 -224.9)" fill="#005d79"/>
                <line id="Line_3" data-name="Line 3" x1="0.142" transform="translate(10.446 32.979)" fill="#005d79"/>
                <g id="Group_5296" data-name="Group 5296" transform="translate(6.498 25.724)">
                  <path id="Path_6545" data-name="Path 6545" d="M286.3,250.367a.555.555,0,0,1,0,.2,3.2,3.2,0,0,0,.59,2.294,3.021,3.021,0,0,0,2.412.85h.026a2.915,2.915,0,0,0,1.946-.76,3.511,3.511,0,0,0,.741-2.584l1.149.2a4.183,4.183,0,0,1-1.086,3.2,4.03,4.03,0,0,1-2.735,1.088h-.089a4.06,4.06,0,0,1-3.238-1.254,4.231,4.231,0,0,1-.87-3.034Z" transform="translate(-285.137 -250.367)" fill="#003345"/>
                </g>
                <path id="Path_6546" data-name="Path 6546" d="M273.523,184.968l.26,4.365.638.18c-.561-7.046,3.151-8.659,3.151-8.659l1.039-4.411a5.177,5.177,0,0,0-4.561,2.517S272.876,180.153,273.523,184.968Z" transform="translate(-270.425 -173.22)" fill="#611300"/>
                <g id="Group_5297" data-name="Group 5297" transform="translate(2.656 4.144)">
                  <path id="Path_6547" data-name="Path 6547" d="M272.99,187.643s-.121-.551-.228-1.38c-.056-.415-.11-.9-.154-1.419-.02-.26-.048-.528-.062-.8-.008-.136-.016-.274-.024-.412l-.006-.1V183.4l.006-.208a2.96,2.96,0,0,1,.051-.44,2.918,2.918,0,0,1,.1-.436c.02-.07.037-.141.058-.209l.079-.2a3.08,3.08,0,0,1,.173-.381,2.7,2.7,0,0,1,.2-.351,3.392,3.392,0,0,1,.217-.316,4.113,4.113,0,0,1,.452-.529,4.214,4.214,0,0,1,.431-.393,4.111,4.111,0,0,1,.36-.265,2.978,2.978,0,0,1,.335-.2,8.246,8.246,0,0,0-.873,1.065c-.06.082-.118.171-.174.265s-.119.186-.173.288a3.147,3.147,0,0,0-.163.313c-.052.108-.108.216-.151.332a2.634,2.634,0,0,0-.129.352,3.449,3.449,0,0,0-.1.367,3.893,3.893,0,0,0-.11.759l-.011.208,0,.052v.029c0-.048,0-.012,0-.021v.019l0,.1c0,.139.01.276.015.413.011.273.008.543.012.8,0,.521,0,1.008-.022,1.426C273.06,187.083,272.99,187.643,272.99,187.643Z" transform="translate(-272.514 -179.474)" fill="#410500"/>
                </g>
                <path id="Path_6548" data-name="Path 6548" d="M310.9,187.776l-.26,4.366-.638.179c.647-9.4-2.856-9.555-2.856-9.555l-1.334-3.515a5.178,5.178,0,0,1,4.561,2.518S311.552,182.961,310.9,187.776Z" transform="translate(-293.023 -175.173)" fill="#611300"/>
                <path id="Path_6549" data-name="Path 6549" d="M279.272,174.008a10.827,10.827,0,0,1,8.237.541l.319-3.224s-.818-6.3-9.036-4.29a5.993,5.993,0,0,1,1.469.955,4.9,4.9,0,0,0-4.561,2.66,7.908,7.908,0,0,1,3.858-.254S276.978,172.1,279.272,174.008Z" transform="translate(-272.075 -166.402)" fill="#611300"/>
                <g id="Group_5298" data-name="Group 5298" transform="translate(6.717)">
                  <path id="Path_6550" data-name="Path 6550" d="M294.892,170.781a4.675,4.675,0,0,0-.159-.463,6.762,6.762,0,0,0-1.044-1.818,6.684,6.684,0,0,0-.636-.665,5.7,5.7,0,0,0-.787-.577,5.043,5.043,0,0,0-.9-.441,4.592,4.592,0,0,0-.48-.166,4.436,4.436,0,0,0-.49-.125,7.84,7.84,0,0,0-.98-.153c-.16-.021-.32-.027-.476-.034s-.31-.022-.46-.017c-.3,0-.585,0-.848.018s-.506.032-.721.049-.4.034-.558.054c-.31.034-.49.049-.49.049s.168-.061.467-.16a5.362,5.362,0,0,1,.545-.159,6.941,6.941,0,0,1,.721-.16c.133-.023.272-.051.417-.072l.452-.047c.155-.02.316-.019.481-.028a4,4,0,0,1,.505,0c.172.007.347.012.523.036a4.113,4.113,0,0,1,.534.079,6.688,6.688,0,0,1,1.067.3,5.621,5.621,0,0,1,.992.507,5.156,5.156,0,0,1,.838.68,5.312,5.312,0,0,1,1.443,2.819A3.092,3.092,0,0,1,294.892,170.781Z" transform="translate(-285.856 -165.859)" fill="#410500"/>
                </g>
              </g>
            </g>
          </g>
        </g>
        <g id="Group_5312" data-name="Group 5312" transform="translate(28.474 25.727)" style="mix-blend-mode: multiply;isolation: isolate">
          <g id="Group_5311" data-name="Group 5311">
            <path id="Path_6551" data-name="Path 6551" d="M174.594,151.024a17.977,17.977,0,1,1-17.977-17.977A17.977,17.977,0,0,1,174.594,151.024Z" transform="translate(-138.64 -133.047)" fill="#fe9d2b"/>
            <g id="Group_5310" data-name="Group 5310" clip-path="url(#clip-path-3)">
              <g id="Group_5309" data-name="Group 5309" transform="translate(7.461 3.817)">
                <rect id="Rectangle_214" data-name="Rectangle 214" width="3.537" height="2.103" transform="translate(8.748 22.672)" fill="#faa47a"/>
                <path id="Path_6552" data-name="Path 6552" d="M192.089,221.636a2.411,2.411,0,0,1,1.546-.7c.5-.037,1.368.071,1.636-.455a.588.588,0,0,1,.153-.193v-.224h-3.537v1.816A1.893,1.893,0,0,1,192.089,221.636Z" transform="translate(-183.139 -197.394)" fill="#aeb0b3" style="mix-blend-mode: multiply;isolation: isolate"/>
                <g id="Group_5304" data-name="Group 5304" transform="translate(16.106 14.348)">
                  <path id="Path_6553" data-name="Path 6553" d="M219.322,194.3a1.632,1.632,0,1,1-1.63-1.575A1.6,1.6,0,0,1,219.322,194.3Z" transform="translate(-216.061 -192.722)" fill="#faa47a"/>
                  <g id="Group_5303" data-name="Group 5303" transform="translate(1.841 0.694)" style="mix-blend-mode: multiply;isolation: isolate">
                    <path id="Path_6554" data-name="Path 6554" d="M222.11,195.007a.667.667,0,0,1,.109,0,.905.905,0,0,1,.289.057.706.706,0,0,1,.347.266.972.972,0,0,1,.06.113,1.192,1.192,0,0,1,.037.125l.015.131c0,.043,0,.086-.006.129a1.118,1.118,0,0,1-.051.245,1.024,1.024,0,0,1-.1.222.814.814,0,0,1-.306.3.674.674,0,0,1-.157.065.8.8,0,0,1-.128.021c-.07,0-.109,0-.109,0l.1-.041c.031-.012.066-.035.106-.055a.942.942,0,0,0,.12-.09.79.79,0,0,0,.115-.127.964.964,0,0,0,.1-.165,1.226,1.226,0,0,0,.07-.193,1,1,0,0,0,.037-.21l.008-.1-.006-.1c-.01-.031-.015-.063-.022-.093s-.022-.06-.036-.087a.709.709,0,0,0-.241-.253,1.5,1.5,0,0,0-.244-.124C222.149,195.019,222.11,195.007,222.11,195.007Z" transform="translate(-222.11 -195.003)" fill="#c7c9cb"/>
                  </g>
                  <path id="Path_6555" data-name="Path 6555" d="M221.594,197.451a.267.267,0,1,1-.264-.305A.287.287,0,0,1,221.594,197.451Z" transform="translate(-219.542 -195.799)" fill="#c7c9cb" style="mix-blend-mode: multiply;isolation: isolate"/>
                </g>
                <g id="Group_5306" data-name="Group 5306" transform="translate(1.888 14.348)">
                  <path id="Path_6556" data-name="Path 6556" d="M169.35,194.3a1.631,1.631,0,1,0,1.63-1.575A1.6,1.6,0,0,0,169.35,194.3Z" transform="translate(-169.35 -192.722)" fill="#faa47a"/>
                  <g id="Group_5305" data-name="Group 5305" transform="translate(0.563 0.694)" style="mix-blend-mode: multiply;isolation: isolate">
                    <path id="Path_6557" data-name="Path 6557" d="M172.058,195.007a.681.681,0,0,0-.11,0,.911.911,0,0,0-.289.057.707.707,0,0,0-.346.266.976.976,0,0,0-.061.113c-.015.04-.026.082-.038.125l-.013.131c0,.043,0,.086,0,.129a1.215,1.215,0,0,0,.051.245,1.07,1.07,0,0,0,.1.222.82.82,0,0,0,.306.3.686.686,0,0,0,.157.065.822.822,0,0,0,.127.021c.071,0,.11,0,.11,0l-.1-.041c-.031-.012-.065-.035-.107-.055a.985.985,0,0,1-.119-.09.834.834,0,0,1-.115-.127.926.926,0,0,1-.1-.165,1.324,1.324,0,0,1-.071-.193.944.944,0,0,1-.035-.21l-.008-.1.006-.1c.008-.031.014-.063.021-.093s.021-.06.036-.087a.708.708,0,0,1,.242-.253,1.436,1.436,0,0,1,.244-.124C172.019,195.019,172.058,195.007,172.058,195.007Z" transform="translate(-171.201 -195.003)" fill="#c7c9cb"/>
                  </g>
                  <path id="Path_6558" data-name="Path 6558" d="M173.322,197.451a.267.267,0,1,0,.264-.305A.288.288,0,0,0,173.322,197.451Z" transform="translate(-172.113 -195.799)" fill="#c7c9cb" style="mix-blend-mode: multiply;isolation: isolate"/>
                </g>
                <path id="Path_6559" data-name="Path 6559" d="M188.415,168.943c0,5.349-2.51,9.1-7.222,9.1s-7.221-3.756-7.221-9.1,2.605-9.686,7.318-9.686S188.415,163.594,188.415,168.943Z" transform="translate(-170.677 -155.096)" fill="#faa47a"/>
                <path id="Path_6560" data-name="Path 6560" d="M171.968,226.688s-4.486.593-6.1,1.989c-1.643,1.422-2.129,2.651-2.721,5.461h21.032c-.592-2.81-1.078-4.04-2.72-5.461-1.613-1.4-6.1-1.989-6.1-1.989Z" transform="translate(-163.149 -202.001)" fill="#faa47a"/>
                <path id="Path_6561" data-name="Path 6561" d="M170.243,227.7a9.236,9.236,0,0,0-4.373,1.682c-1.643,1.422-2.129,2.651-2.721,5.461h21.032c-.592-2.81-1.078-4.04-2.72-5.461A9.2,9.2,0,0,0,177.1,227.7l-3.434,3.415Z" transform="translate(-163.149 -202.702)" fill="#222b35"/>
                <path id="Path_6562" data-name="Path 6562" d="M172.879,161.926l.261,4.365.638.18c-.561-7.046,3.151-8.659,3.151-8.659l1.039-4.411a5.177,5.177,0,0,0-4.56,2.518S172.233,157.11,172.879,161.926Z" transform="translate(-169.782 -151.021)" fill="#2d1a10"/>
                <g id="Group_5307" data-name="Group 5307" transform="translate(2.626 3.302)">
                  <path id="Path_6563" data-name="Path 6563" d="M172.282,164.6s-.132-.55-.245-1.379c-.06-.415-.116-.9-.163-1.418-.021-.26-.051-.528-.065-.8l-.025-.412-.006-.1v-.079l0-.052.006-.208a3.026,3.026,0,0,1,.052-.442,2.9,2.9,0,0,1,.1-.439c.02-.071.037-.142.059-.211l.08-.2a3.133,3.133,0,0,1,.175-.383,2.613,2.613,0,0,1,.2-.352,3.517,3.517,0,0,1,.219-.316,4.123,4.123,0,0,1,.458-.528,4.077,4.077,0,0,1,.436-.39,3.885,3.885,0,0,1,.364-.262,2.878,2.878,0,0,1,.339-.192,8.655,8.655,0,0,0-.86,1.076c-.059.083-.116.171-.171.266s-.117.186-.171.288a3.064,3.064,0,0,0-.16.312c-.051.108-.107.216-.149.331a2.689,2.689,0,0,0-.127.35,3.592,3.592,0,0,0-.1.365,2.33,2.33,0,0,0-.072.368,2.379,2.379,0,0,0-.037.384l-.011.208,0,.052,0,.026v0l0,.1c0,.138.009.276.014.413.011.273.006.543.01.8,0,.521-.009,1.009-.03,1.427C172.361,164.04,172.282,164.6,172.282,164.6Z" transform="translate(-171.777 -156.432)" fill="#190c04"/>
                </g>
                <path id="Path_6564" data-name="Path 6564" d="M185.217,167.293s2.23,3.848,9.389,3.649c0,0-1.339-1.583-.672-2.336C193.934,168.607,187,165.31,185.217,167.293Z" transform="translate(-178.499 -160.244)" fill="#aeb0b3" style="mix-blend-mode: multiply;isolation: isolate"/>
                <path id="Path_6565" data-name="Path 6565" d="M210.264,164.735,210,169.1l-.637.18c.561-7.047-3.152-8.659-3.152-8.659l-1.037-4.411a5.176,5.176,0,0,1,4.56,2.518S210.91,159.921,210.264,164.735Z" transform="translate(-192.383 -152.976)" fill="#2d1a10"/>
                <path id="Path_6566" data-name="Path 6566" d="M181.361,149.319s1.03-2.1,4.724-2.67c0,0,6.149-.74,8.109,3.527a11.414,11.414,0,0,1,.633,5.668,3.714,3.714,0,0,0-1.38-2.166s-.169,1.923-2.823.74c0,0-.422.788.5,2.19C191.129,156.608,182.535,156.608,181.361,149.319Z" transform="translate(-175.817 -146.291)" fill="#2d1a10"/>
                <g id="Group_5308" data-name="Group 5308" transform="translate(5.544)">
                  <path id="Path_6567" data-name="Path 6567" d="M181.361,148.613a2.647,2.647,0,0,1,.324-.567,4.365,4.365,0,0,1,.493-.573c.1-.108.223-.2.345-.316s.266-.209.416-.31a6.178,6.178,0,0,1,1.022-.569,7.453,7.453,0,0,1,1.231-.437c.217-.068.444-.1.672-.154l.171-.036.192-.023c.118-.012.237-.019.355-.025a12.551,12.551,0,0,1,1.435.008,11.719,11.719,0,0,1,1.425.194,8.424,8.424,0,0,1,1.343.388,6.874,6.874,0,0,1,1.179.576,5.446,5.446,0,0,1,.936.712,4.789,4.789,0,0,1,.651.743,4.3,4.3,0,0,1,.39.647,3.426,3.426,0,0,1,.192.442l.061.158-.092-.143c-.059-.093-.144-.23-.268-.392a5.468,5.468,0,0,0-.468-.559,4.114,4.114,0,0,0-.321-.308c-.114-.107-.242-.209-.378-.312a6.507,6.507,0,0,0-.932-.578,8.373,8.373,0,0,0-1.133-.462,10.1,10.1,0,0,0-1.275-.314,11.3,11.3,0,0,0-1.352-.163,11.9,11.9,0,0,0-1.364-.029l-.334.017-.149.01-.163.027c-.216.04-.435.061-.641.116a9.2,9.2,0,0,0-1.184.333l-.272.1-.257.112c-.173.067-.327.155-.481.231a6.486,6.486,0,0,0-.792.5,5.51,5.51,0,0,0-.555.472,4.343,4.343,0,0,0-.319.35A1.447,1.447,0,0,0,181.361,148.613Z" transform="translate(-181.361 -145.586)" fill="#190c04"/>
                </g>
              </g>
            </g>
          </g>
        </g>
        <g id="Group_5320" data-name="Group 5320" transform="translate(0 32.74)" style="mix-blend-mode: multiply;isolation: isolate">
          <g id="Group_5319" data-name="Group 5319">
            <path id="Path_6569" data-name="Path 6569" d="M81.052,174.064a17.977,17.977,0,1,1-17.978-17.978A17.977,17.977,0,0,1,81.052,174.064Z" transform="translate(-45.099 -156.086)" fill="#55b2b0"/>
            <g id="Group_5318" data-name="Group 5318" clip-path="url(#clip-path-4)">
              <g id="Group_5317" data-name="Group 5317" transform="translate(7.459 5.567)">
                <path id="Path_6570" data-name="Path 6570" d="M116.164,221.954s-2.326,7.861-6.435,8.355v-1.791S113.941,220.665,116.164,221.954Z" transform="translate(-97.515 -207.372)" fill="#2d1a10"/>
                <rect id="Rectangle_215" data-name="Rectangle 215" width="3.536" height="2.103" transform="translate(8.749 20.922)" fill="#faa47a"/>
                <path id="Path_6571" data-name="Path 6571" d="M98.547,244.677a2.409,2.409,0,0,1,1.546-.7c.505-.038,1.368.07,1.637-.457a.589.589,0,0,1,.151-.193v-.224H98.345v1.817A1.858,1.858,0,0,1,98.547,244.677Z" transform="translate(-89.596 -222.185)" fill="#aeb0b3" style="mix-blend-mode: multiply;isolation: isolate"/>
                <g id="Group_5314" data-name="Group 5314" transform="translate(16.108 12.599)">
                  <path id="Path_6572" data-name="Path 6572" d="M125.782,217.34a1.631,1.631,0,1,1-1.63-1.574A1.6,1.6,0,0,1,125.782,217.34Z" transform="translate(-122.522 -215.766)" fill="#faa47a"/>
                  <g id="Group_5313" data-name="Group 5313" transform="translate(1.84 0.693)" style="mix-blend-mode: multiply;isolation: isolate">
                    <path id="Path_6573" data-name="Path 6573" d="M128.568,218.049a.627.627,0,0,1,.11,0,.91.91,0,0,1,.288.057.716.716,0,0,1,.348.266,1.231,1.231,0,0,1,.059.113,1.265,1.265,0,0,1,.039.126l.013.131a1.229,1.229,0,0,1-.006.129,1.083,1.083,0,0,1-.051.245,1.043,1.043,0,0,1-.1.222.827.827,0,0,1-.306.3.685.685,0,0,1-.157.065.973.973,0,0,1-.127.022h-.11l.1-.041c.031-.012.066-.035.106-.055a1.2,1.2,0,0,0,.12-.09.858.858,0,0,0,.115-.127,1.041,1.041,0,0,0,.1-.164,1.124,1.124,0,0,0,.07-.193.915.915,0,0,0,.037-.209l.008-.1-.007-.1c-.009-.031-.014-.063-.022-.093s-.02-.059-.035-.086a.716.716,0,0,0-.243-.253,1.383,1.383,0,0,0-.243-.124C128.606,218.06,128.568,218.049,128.568,218.049Z" transform="translate(-128.568 -218.044)" fill="#c7c9cb"/>
                  </g>
                  <path id="Path_6574" data-name="Path 6574" d="M128.052,220.494a.267.267,0,1,1-.264-.3A.287.287,0,0,1,128.052,220.494Z" transform="translate(-126.001 -218.843)" fill="#c7c9cb" style="mix-blend-mode: multiply;isolation: isolate"/>
                </g>
                <g id="Group_5316" data-name="Group 5316" transform="translate(1.888 12.599)">
                  <path id="Path_6575" data-name="Path 6575" d="M75.806,217.34a1.631,1.631,0,1,0,1.63-1.574A1.6,1.6,0,0,0,75.806,217.34Z" transform="translate(-75.806 -215.766)" fill="#faa47a"/>
                  <g id="Group_5315" data-name="Group 5315" transform="translate(0.563 0.693)" style="mix-blend-mode: multiply;isolation: isolate">
                    <path id="Path_6576" data-name="Path 6576" d="M78.513,218.049a.643.643,0,0,0-.111,0,.909.909,0,0,0-.288.057.711.711,0,0,0-.347.266c-.023.034-.04.074-.061.113s-.026.083-.037.126l-.014.131c0,.043,0,.086.005.129a1.119,1.119,0,0,0,.052.245,1.016,1.016,0,0,0,.1.222.811.811,0,0,0,.306.3.672.672,0,0,0,.156.065.986.986,0,0,0,.128.022h.111l-.1-.041c-.031-.012-.066-.035-.106-.055a.9.9,0,0,1-.119-.09.77.77,0,0,1-.115-.127.957.957,0,0,1-.1-.164,1.237,1.237,0,0,1-.069-.193.9.9,0,0,1-.037-.209l-.008-.1.006-.1c.01-.031.016-.063.023-.093a.857.857,0,0,1,.036-.086.71.71,0,0,1,.241-.253,1.427,1.427,0,0,1,.243-.124C78.474,218.06,78.513,218.049,78.513,218.049Z" transform="translate(-77.655 -218.044)" fill="#c7c9cb"/>
                  </g>
                  <path id="Path_6577" data-name="Path 6577" d="M79.776,220.494a.267.267,0,1,0,.265-.3A.288.288,0,0,0,79.776,220.494Z" transform="translate(-78.568 -218.843)" fill="#c7c9cb" style="mix-blend-mode: multiply;isolation: isolate"/>
                </g>
                <path id="Path_6578" data-name="Path 6578" d="M94.872,191.985c0,5.349-2.509,9.1-7.221,9.1s-7.221-3.756-7.221-9.1,2.606-9.685,7.317-9.685S94.872,186.636,94.872,191.985Z" transform="translate(-77.135 -179.888)" fill="#faa47a"/>
                <path id="Path_6579" data-name="Path 6579" d="M78.423,249.729s-4.485.593-6.1,1.989c-1.644,1.422-2.13,2.651-2.722,5.461H90.637c-.591-2.81-1.078-4.038-2.721-5.461-1.612-1.4-6.1-1.989-6.1-1.989Z" transform="translate(-69.604 -226.791)" fill="#faa47a"/>
                <path id="Path_6580" data-name="Path 6580" d="M92.883,249.729a23.547,23.547,0,0,1,4.212.994,10.35,10.35,0,0,0,0,6.456H85.511a16.371,16.371,0,0,0,.306-6.638,24.771,24.771,0,0,1,3.671-.812l1.627,3.162Z" transform="translate(-80.669 -226.791)" fill="#e4393d"/>
                <path id="Path_6581" data-name="Path 6581" d="M103.921,274.2" transform="translate(-93.475 -243.814)" fill="#e4393d"/>
                <path id="Path_6582" data-name="Path 6582" d="M102.815,187c-2.435-.6-3.616-3.621-3.616-3.621a3.515,3.515,0,0,0,.079,1.465,22.249,22.249,0,0,1-7.078-5.286c-2.242-2.768,1.359-4.585,1.359-4.585,5.774-2.038,8.258,1.818,8.258,1.818s4.1,3.71,2.083,10.881A1.748,1.748,0,0,0,102.815,187Z" transform="translate(-84.811 -174.376)" fill="#2d1a10"/>
                <path id="Path_6583" data-name="Path 6583" d="M81.681,181.72s-5.175.177-6.166,8.357c0,0-1.43,14.966,5.284,17.514,0,0-.441-4.235,1.577-5.159v-1.941s-4.893-.861-4.83-7.262c0,0,.032-7.387,3.79-8.788Z" transform="translate(-73.627 -179.484)" fill="#2d1a10"/>
                <path id="Path_6584" data-name="Path 6584" d="M127.178,224.666a.545.545,0,1,1-.546-.545A.545.545,0,0,1,127.178,224.666Z" transform="translate(-108.895 -208.979)" fill="#fff"/>
              </g>
            </g>
          </g>
        </g>
        <g id="Group_5328" data-name="Group 5328" transform="translate(45.438)" style="mix-blend-mode: multiply;isolation: isolate">
          <g id="Group_5327" data-name="Group 5327">
            <circle id="Ellipse_15" data-name="Ellipse 15" cx="17.977" cy="17.977" r="17.977" fill="#f26b3b"/>
            <g id="Group_5326" data-name="Group 5326" clip-path="url(#clip-path-5)">
              <g id="Group_5325" data-name="Group 5325" transform="translate(7.461 5.282)">
                <rect id="Rectangle_216" data-name="Rectangle 216" width="3.536" height="2.104" transform="translate(8.748 21.207)" fill="#faa47a"/>
                <path id="Path_6586" data-name="Path 6586" d="M247.821,137.122a2.4,2.4,0,0,1,1.545-.7c.506-.038,1.368.071,1.636-.456a.612.612,0,0,1,.153-.193v-.224h-3.536v1.817A1.805,1.805,0,0,1,247.821,137.122Z" transform="translate(-238.871 -114.344)" fill="#aeb0b3" style="mix-blend-mode: multiply;isolation: isolate"/>
                <g id="Group_5322" data-name="Group 5322" transform="translate(16.108 12.884)">
                  <path id="Path_6587" data-name="Path 6587" d="M275.057,109.784a1.631,1.631,0,1,1-1.63-1.575A1.6,1.6,0,0,1,275.057,109.784Z" transform="translate(-271.797 -108.209)" fill="#faa47a"/>
                  <g id="Group_5321" data-name="Group 5321" transform="translate(1.84 0.694)" style="mix-blend-mode: multiply;isolation: isolate">
                    <path id="Path_6588" data-name="Path 6588" d="M277.843,110.493a.669.669,0,0,1,.109,0,.914.914,0,0,1,.288.057.705.705,0,0,1,.347.267,1,1,0,0,1,.061.113c.015.041.026.083.039.126l.013.131c0,.043,0,.086-.005.129a1.12,1.12,0,0,1-.051.245,1.042,1.042,0,0,1-.1.222.812.812,0,0,1-.306.3.678.678,0,0,1-.157.065,1.013,1.013,0,0,1-.127.021c-.072,0-.111,0-.111,0l.1-.041c.031-.012.065-.035.106-.054a.944.944,0,0,0,.119-.09.731.731,0,0,0,.115-.127.9.9,0,0,0,.1-.164,1.225,1.225,0,0,0,.07-.193.924.924,0,0,0,.037-.209l.009-.1-.008-.1c-.009-.031-.014-.063-.021-.093a.868.868,0,0,0-.036-.086.714.714,0,0,0-.241-.253,1.45,1.45,0,0,0-.244-.125C277.882,110.5,277.843,110.493,277.843,110.493Z" transform="translate(-277.843 -110.489)" fill="#c7c9cb"/>
                  </g>
                  <path id="Path_6589" data-name="Path 6589" d="M277.325,112.939a.267.267,0,1,1-.265-.3A.287.287,0,0,1,277.325,112.939Z" transform="translate(-275.274 -111.287)" fill="#c7c9cb" style="mix-blend-mode: multiply;isolation: isolate"/>
                </g>
                <g id="Group_5324" data-name="Group 5324" transform="translate(1.888 12.884)">
                  <path id="Path_6590" data-name="Path 6590" d="M225.083,109.784a1.631,1.631,0,1,0,1.629-1.575A1.6,1.6,0,0,0,225.083,109.784Z" transform="translate(-225.083 -108.209)" fill="#faa47a"/>
                  <g id="Group_5323" data-name="Group 5323" transform="translate(0.563 0.694)" style="mix-blend-mode: multiply;isolation: isolate">
                    <path id="Path_6591" data-name="Path 6591" d="M227.788,110.493a.677.677,0,0,0-.11,0,.917.917,0,0,0-.288.057.714.714,0,0,0-.347.267c-.023.034-.04.074-.061.113s-.026.083-.037.126l-.013.131c0,.043,0,.086,0,.129a1.085,1.085,0,0,0,.051.245,1.071,1.071,0,0,0,.1.222.832.832,0,0,0,.306.3.689.689,0,0,0,.158.065.959.959,0,0,0,.127.021c.072,0,.11,0,.11,0l-.1-.041c-.031-.012-.065-.035-.106-.054a.965.965,0,0,1-.119-.09.731.731,0,0,1-.115-.127.96.96,0,0,1-.1-.164,1.2,1.2,0,0,1-.07-.193.943.943,0,0,1-.036-.209l-.008-.1.007-.1c.009-.031.014-.063.021-.093s.02-.059.036-.086a.719.719,0,0,1,.242-.253,1.393,1.393,0,0,1,.243-.125C227.75,110.5,227.788,110.493,227.788,110.493Z" transform="translate(-226.932 -110.489)" fill="#c7c9cb"/>
                  </g>
                  <path id="Path_6592" data-name="Path 6592" d="M229.054,112.939a.267.267,0,1,0,.264-.3A.287.287,0,0,0,229.054,112.939Z" transform="translate(-227.845 -111.287)" fill="#c7c9cb" style="mix-blend-mode: multiply;isolation: isolate"/>
                </g>
                <path id="Path_6593" data-name="Path 6593" d="M244.147,84.43c0,5.349-2.511,9.1-7.221,9.1s-7.222-3.756-7.222-9.1,2.605-9.685,7.317-9.685S244.147,79.081,244.147,84.43Z" transform="translate(-226.409 -72.048)" fill="#faa47a"/>
                <path id="Path_6594" data-name="Path 6594" d="M227.7,142.174s-4.486.593-6.1,1.988c-1.643,1.422-2.129,2.651-2.721,5.461h21.033c-.592-2.81-1.078-4.039-2.721-5.461-1.613-1.4-6.1-1.988-6.1-1.988Z" transform="translate(-218.88 -118.951)" fill="#faa47a"/>
                <path id="Path_6595" data-name="Path 6595" d="M236.379,143.59s.484-.205-1.287.354a16.333,16.333,0,0,1-.306,6.639h11.584a10.35,10.35,0,0,1,0-6.456l-1.071-.388s-.1,5.369-4.909,5C240.389,148.735,236.221,149.144,236.379,143.59Z" transform="translate(-229.944 -119.911)" fill="#00adb9"/>
                <path id="Path_6596" data-name="Path 6596" d="M253.194,166.647" transform="translate(-242.749 -135.975)" fill="#e4393d"/>
                <path id="Path_6597" data-name="Path 6597" d="M230.944,74.164s-5.175.177-6.166,8.357c0,0-.965,6.738,2.3,12.483a21.417,21.417,0,0,1,4.56-.129V92.935s-4.893-.861-4.829-7.261c0,0,.032-7.387,3.788-8.788Z" transform="translate(-222.89 -71.644)" fill="#611300"/>
                <path id="Path_6598" data-name="Path 6598" d="M259.931,74.164s5.868-.091,6.858,8.09c0,0,.509,5.473-2.993,12.751a21.429,21.429,0,0,0-4.56-.129V92.935s4.892-.861,4.83-7.261c0,0-.032-7.387-3.79-8.788Z" transform="translate(-246.952 -71.644)" fill="#611300"/>
                <path id="Path_6599" data-name="Path 6599" d="M238,70.477a11.456,11.456,0,0,0,10.287,4.808l1.368,3.483,1.355.562s2.048-.562-.082-8.853c0,0-2.2-6.062-10.155-4.257C240.773,66.22,236.811,66.944,238,70.477Z" transform="translate(-232.025 -65.884)" fill="#611300"/>
              </g>
            </g>
          </g>
        </g>
        <g id="Group_5336" data-name="Group 5336" transform="translate(28.473 57.112)" style="mix-blend-mode: multiply;isolation: isolate">
          <g id="Group_5335" data-name="Group 5335">
            <path id="Path_6600" data-name="Path 6600" d="M174.592,254.132a17.977,17.977,0,1,1-17.977-17.978A17.977,17.977,0,0,1,174.592,254.132Z" transform="translate(-138.638 -236.154)" fill="#e4393d"/>
            <g id="Group_5334" data-name="Group 5334" clip-path="url(#clip-path-6)">
              <g id="Group_5333" data-name="Group 5333" transform="translate(7.461 5.746)">
                <rect id="Rectangle_217" data-name="Rectangle 217" width="3.535" height="2.104" transform="translate(8.749 20.742)" fill="#faa47a"/>
                <path id="Path_6601" data-name="Path 6601" d="M192.092,324.745a2.4,2.4,0,0,1,1.546-.7c.5-.038,1.367.07,1.636-.457a.607.607,0,0,1,.152-.193v-.224H191.89v1.817A1.791,1.791,0,0,1,192.092,324.745Z" transform="translate(-183.141 -302.431)" fill="#aeb0b3" style="mix-blend-mode: multiply;isolation: isolate"/>
                <g id="Group_5330" data-name="Group 5330" transform="translate(16.107 12.42)">
                  <path id="Path_6602" data-name="Path 6602" d="M219.322,297.407a1.632,1.632,0,1,1-1.63-1.575A1.6,1.6,0,0,1,219.322,297.407Z" transform="translate(-216.061 -295.832)" fill="#faa47a"/>
                  <g id="Group_5329" data-name="Group 5329" transform="translate(1.842 0.694)" style="mix-blend-mode: multiply;isolation: isolate">
                    <path id="Path_6603" data-name="Path 6603" d="M222.112,298.116a.671.671,0,0,1,.109,0,.919.919,0,0,1,.288.057.708.708,0,0,1,.347.267,1.084,1.084,0,0,1,.061.113c.014.041.026.083.037.126l.014.131c0,.043,0,.086-.005.13a1.14,1.14,0,0,1-.051.244,1.047,1.047,0,0,1-.1.223.815.815,0,0,1-.306.3.682.682,0,0,1-.156.065.929.929,0,0,1-.128.022c-.07,0-.109,0-.109,0l.1-.042c.031-.011.066-.035.106-.055a.865.865,0,0,0,.119-.09.719.719,0,0,0,.115-.127.914.914,0,0,0,.1-.164,1.216,1.216,0,0,0,.07-.193,1.022,1.022,0,0,0,.037-.209l.008-.1-.006-.1c-.009-.031-.014-.062-.022-.093s-.021-.059-.036-.086a.716.716,0,0,0-.241-.254,1.526,1.526,0,0,0-.244-.124C222.151,298.128,222.112,298.116,222.112,298.116Z" transform="translate(-222.112 -298.112)" fill="#c7c9cb"/>
                  </g>
                  <path id="Path_6604" data-name="Path 6604" d="M221.594,300.561a.267.267,0,1,1-.263-.305A.286.286,0,0,1,221.594,300.561Z" transform="translate(-219.542 -298.909)" fill="#c7c9cb" style="mix-blend-mode: multiply;isolation: isolate"/>
                </g>
                <g id="Group_5332" data-name="Group 5332" transform="translate(1.888 12.42)">
                  <path id="Path_6605" data-name="Path 6605" d="M169.352,297.407a1.631,1.631,0,1,0,1.629-1.575A1.6,1.6,0,0,0,169.352,297.407Z" transform="translate(-169.352 -295.832)" fill="#faa47a"/>
                  <g id="Group_5331" data-name="Group 5331" transform="translate(0.562 0.694)" style="mix-blend-mode: multiply;isolation: isolate">
                    <path id="Path_6606" data-name="Path 6606" d="M172.056,298.116a.682.682,0,0,0-.11,0,.918.918,0,0,0-.288.057.716.716,0,0,0-.348.267,1.2,1.2,0,0,0-.06.113c-.015.041-.026.083-.038.126l-.013.131c0,.043,0,.086.006.13a1.119,1.119,0,0,0,.051.244,1.047,1.047,0,0,0,.1.223.817.817,0,0,0,.306.3.654.654,0,0,0,.157.065.915.915,0,0,0,.127.022c.071,0,.11,0,.11,0l-.1-.042c-.031-.011-.066-.035-.106-.055a.88.88,0,0,1-.119-.09.8.8,0,0,1-.115-.127.993.993,0,0,1-.1-.164,1.282,1.282,0,0,1-.07-.193.928.928,0,0,1-.036-.209l-.008-.1.006-.1c.009-.031.015-.062.022-.093s.021-.059.036-.086a.717.717,0,0,1,.242-.254,1.462,1.462,0,0,1,.243-.124C172.018,298.128,172.056,298.116,172.056,298.116Z" transform="translate(-171.199 -298.112)" fill="#c7c9cb"/>
                  </g>
                  <path id="Path_6607" data-name="Path 6607" d="M173.322,300.561a.267.267,0,1,0,.265-.305A.287.287,0,0,0,173.322,300.561Z" transform="translate(-172.114 -298.909)" fill="#c7c9cb" style="mix-blend-mode: multiply;isolation: isolate"/>
                </g>
                <path id="Path_6608" data-name="Path 6608" d="M188.415,272.052c0,5.35-2.509,9.105-7.222,9.105s-7.221-3.756-7.221-9.105,2.6-9.685,7.317-9.685S188.415,266.7,188.415,272.052Z" transform="translate(-170.677 -260.134)" fill="#faa47a"/>
                <path id="Path_6609" data-name="Path 6609" d="M171.968,329.8s-4.486.593-6.1,1.988c-1.643,1.423-2.13,2.651-2.722,5.462h21.033c-.592-2.811-1.078-4.039-2.721-5.462-1.613-1.395-6.1-1.988-6.1-1.988Z" transform="translate(-163.148 -307.038)" fill="#faa47a"/>
                <path id="Path_6610" data-name="Path 6610" d="M177.538,331.074a10.218,10.218,0,0,1,3.922,1.581c1.643,1.423,2.129,2.651,2.721,5.462H163.148c.591-2.811,1.078-4.039,2.722-5.462a10.446,10.446,0,0,1,4.038-1.608l3.757,4.049Z" transform="translate(-163.148 -307.908)" fill="#6e0816"/>
                <path id="Path_6611" data-name="Path 6611" d="M197.463,354.27" transform="translate(-187.018 -324.062)" fill="#e4393d"/>
                <path id="Path_6612" data-name="Path 6612" d="M175.076,261.788s-5.175.176-6.166,8.357c0,0-.193,7.026-.193,15.337,0,0,1.184-2.076,7.054-2.982v-1.941s-4.894-.861-4.831-7.261c0,0,.033-7.388,3.79-8.789Z" transform="translate(-167.022 -259.731)" fill="#2d1a10"/>
                <path id="Path_6613" data-name="Path 6613" d="M204.2,261.785s5.878-.3,6.869,7.884c0,0,.114,7.26-.48,15.892,0,0-1.63-2.327-7.084-3.065v-1.941s4.893-.861,4.83-7.261c0,0-.031-7.388-3.789-8.789Z" transform="translate(-191.22 -259.728)" fill="#2d1a10"/>
                <path id="Path_6614" data-name="Path 6614" d="M177.22,264.973l.73-3.664v3.664h3.628l.6-2.579.626,2.579h4.548a23.561,23.561,0,0,0-.48-4.713s-1.21-5.7-9.747-5.2c0,0-7.193,0-7.714,9.909Z" transform="translate(-167.505 -255.032)" fill="#2d1a10"/>
              </g>
            </g>
          </g>
        </g>
      </g>
      <g id="Group_5338" data-name="Group 5338" transform="translate(39.111)">
        <path id="Path_6616" data-name="Path 6616" d="M178.556,34.688A2.485,2.485,0,1,1,176.07,32.2,2.485,2.485,0,0,1,178.556,34.688Z" transform="translate(-173.585 -32.202)" fill="#23ad9b"/>
        <path id="Path_6617" data-name="Path 6617" d="M195.509,55.389a1.7,1.7,0,1,1-1.7-1.7A1.7,1.7,0,0,1,195.509,55.389Z" transform="translate(-186.468 -47.148)" fill="#e4393d"/>
        <path id="Path_6618" data-name="Path 6618" d="M210.754,35.179a2.977,2.977,0,1,1-2.979-2.977A2.978,2.978,0,0,1,210.754,35.179Z" transform="translate(-195.298 -32.202)" fill="#fe9d2b"/>
      </g>
      <g id="Group_5339" data-name="Group 5339" transform="translate(83.398 22.969)">
        <path id="Path_6619" data-name="Path 6619" d="M321.288,138.339a2.214,2.214,0,1,1-2.214,2.215A2.214,2.214,0,0,1,321.288,138.339Z" transform="translate(-319.074 -129)" fill="#23ad9b"/>
        <path id="Path_6620" data-name="Path 6620" d="M339.728,126.431a1.515,1.515,0,1,1-1.516,1.516A1.516,1.516,0,0,1,339.728,126.431Z" transform="translate(-332.386 -120.717)" fill="#e4393d"/>
        <path id="Path_6621" data-name="Path 6621" d="M321.725,107.66a2.652,2.652,0,1,1-2.651,2.652A2.652,2.652,0,0,1,321.725,107.66Z" transform="translate(-319.074 -107.66)" fill="#fe9d2b"/>
      </g>
      <g id="Group_5340" data-name="Group 5340" transform="translate(1.897 25.435)">
        <path id="Path_6622" data-name="Path 6622" d="M54.568,142.715a2.214,2.214,0,1,1-2.987.94A2.215,2.215,0,0,1,54.568,142.715Z" transform="translate(-51.33 -134.335)" fill="#23ad9b"/>
        <path id="Path_6623" data-name="Path 6623" d="M77.343,140.124a1.515,1.515,0,1,1-2.044.643A1.515,1.515,0,0,1,77.343,140.124Z" transform="translate(-67.883 -132.588)" fill="#e4393d"/>
        <path id="Path_6624" data-name="Path 6624" d="M68.565,116.062a2.652,2.652,0,1,1-3.578,1.126A2.652,2.652,0,0,1,68.565,116.062Z" transform="translate(-60.621 -115.761)" fill="#fe9d2b"/>
      </g>
      <g id="Group_5341" data-name="Group 5341" transform="translate(16.817 76.332)">
        <path id="Path_6625" data-name="Path 6625" d="M115.9,310.925a2.214,2.214,0,1,1-.856,3.012A2.214,2.214,0,0,1,115.9,310.925Z" transform="translate(-110.375 -302.218)" fill="#23ad9b"/>
        <path id="Path_6626" data-name="Path 6626" d="M125.635,292.526a1.515,1.515,0,1,1-.586,2.061A1.514,1.514,0,0,1,125.635,292.526Z" transform="translate(-117.396 -289.481)" fill="#e4393d"/>
        <path id="Path_6627" data-name="Path 6627" d="M101.708,283.3a2.652,2.652,0,1,1-1.025,3.608A2.653,2.653,0,0,1,101.708,283.3Z" transform="translate(-100.346 -282.963)" fill="#fe9d2b"/>
      </g>
      <g id="Group_5342" data-name="Group 5342" transform="translate(65.649 76.39)">
        <path id="Path_6628" data-name="Path 6628" d="M264.915,298.708a2.214,2.214,0,1,1-3.012-.857A2.213,2.213,0,0,1,264.915,298.708Z" transform="translate(-260.767 -293.182)" fill="#23ad9b"/>
        <path id="Path_6629" data-name="Path 6629" d="M286.509,308.443a1.515,1.515,0,1,1-2.062-.586A1.514,1.514,0,0,1,286.509,308.443Z" transform="translate(-276.698 -300.204)" fill="#e4393d"/>
        <path id="Path_6630" data-name="Path 6630" d="M290.541,284.516a2.652,2.652,0,1,1-3.607-1.025A2.652,2.652,0,0,1,290.541,284.516Z" transform="translate(-278.022 -283.155)" fill="#fe9d2b"/>
      </g>
    </g>
  </g>
</svg>
