<svg xmlns="http://www.w3.org/2000/svg" xmlns:xlink="http://www.w3.org/1999/xlink" width="209" height="198.626" viewBox="0 0 209 198.626">
  <defs>
    <filter id="Rectangle_10" x="0" y="27.042" width="161.511" height="60.73" filterUnits="userSpaceOnUse">
      <feOffset dy="3" input="SourceAlpha"/>
      <feGaussianBlur stdDeviation="3" result="blur"/>
      <feFlood flood-opacity="0.161"/>
      <feComposite operator="in" in2="blur"/>
      <feComposite in="SourceGraphic"/>
    </filter>
  </defs>
  <g id="Icon" transform="translate(-419.329 -2439.128)">
    <path id="Path_5284" data-name="Path 5284" d="M1764.889,2565.38h-7.594v-24.558a40.242,40.242,0,1,0-80.484,0v24.558h-7.594a9.666,9.666,0,0,0-9.666,9.666v95.673a9.666,9.666,0,0,0,9.666,9.666h95.673a9.666,9.666,0,0,0,9.666-9.666v-95.673A9.666,9.666,0,0,0,1764.889,2565.38Zm-76.348-24.558a28.512,28.512,0,0,1,57.024,0v24.558H1688.54Z" transform="translate(-1152.883 -57.542)" fill="#b3b3b3" style="mix-blend-mode: color-burn;isolation: isolate"/>
    <path id="Path_5285" data-name="Path 5285" d="M1713.1,3467.234v95.672c0,.064,0,.129,0,.193a9.667,9.667,0,0,1-9.665,9.474h-95.672a9.667,9.667,0,0,1-9.667-9.667v-95.672a9.667,9.667,0,0,1,9.667-9.667h95.672A9.667,9.667,0,0,1,1713.1,3467.234Z" transform="translate(-1095.333 -953.639)" fill="#1795a8"/>
    <rect id="Rectangle_9" data-name="Rectangle 9" width="85.055" height="85.055" rx="42.528" transform="translate(517.732 2518.903)" fill="#24adc1"/>
    <path id="Path_5286" data-name="Path 5286" d="M1836.593,3773.976v-70.758a7.149,7.149,0,0,1,7.149-7.149H1914.5a7.117,7.117,0,0,1,3.231.773,7.147,7.147,0,0,0-6.376-3.917H1840.6a7.149,7.149,0,0,0-7.149,7.149v70.758a7.147,7.147,0,0,0,3.917,6.376A7.118,7.118,0,0,1,1836.593,3773.976Z" transform="translate(-1315.716 -1174.021)" fill="#ccc" style="mix-blend-mode: multiply;isolation: isolate"/>
    <path id="Path_5287" data-name="Path 5287" d="M2343,3985.349a11.541,11.541,0,0,1-2.558,7.259q-.255.318-.533.616a11.577,11.577,0,0,1-16.979,0c-.185-.2-.363-.4-.533-.616a11.6,11.6,0,0,1-2.384-9.268c.036-.207.078-.412.125-.616a11.4,11.4,0,0,1,.805-2.317,11.584,11.584,0,0,1,20.952,0,11.413,11.413,0,0,1,.805,2.317q.07.305.125.616A11.633,11.633,0,0,1,2343,3985.349Z" transform="translate(-1771.157 -1436.997)" fill="#333"/>
    <path id="Path_5288" data-name="Path 5288" d="M2401.869,4261.1h0a6.793,6.793,0,0,1-6.781-7.193l1.531-25.951h10.5l1.531,25.951A6.793,6.793,0,0,1,2401.869,4261.1Z" transform="translate(-1841.61 -1675.009)" fill="#333"/>
    <path id="Path_5289" data-name="Path 5289" d="M2381.941,3916.433a17.553,17.553,0,0,0-16.839,12.6h-44.967c-.047.2-.089.409-.125.616a11.559,11.559,0,0,0,2.384,9.268H2365.1a17.547,17.547,0,1,0,16.839-22.488Zm0,26.331a8.785,8.785,0,1,1,8.785-8.786A8.785,8.785,0,0,1,2381.941,3942.764Z" transform="translate(-1771.157 -1383.309)" fill="#b3b3b3" style="mix-blend-mode: color-burn;isolation: isolate"/>
    <path id="Path_5290" data-name="Path 5290" d="M2364.076,4078.115V4088h-43.134a11.6,11.6,0,0,1,0-9.884Z" transform="translate(-1771.157 -1534.704)" fill="#fff"/>
    <path id="Path_5291" data-name="Path 5291" d="M3001.3,3880.028a17.545,17.545,0,1,0,17.545,17.545A17.545,17.545,0,0,0,3001.3,3880.028Zm0,26.33a8.785,8.785,0,1,1,8.785-8.785A8.785,8.785,0,0,1,3001.3,3906.358Z" transform="translate(-2392.834 -1349.221)" fill="#fff"/>
    <path id="Path_5292" data-name="Path 5292" d="M2324.888,4088h-3.946a11.6,11.6,0,0,1,0-9.884h3.946a11.6,11.6,0,0,0,0,9.884Z" transform="translate(-1771.157 -1534.704)" fill="#ccc" style="mix-blend-mode: multiply;isolation: isolate"/>
    <path id="Path_5293" data-name="Path 5293" d="M1949.856,2503.928h-11.73V2479.37a28.512,28.512,0,0,0-57.024,0v24.559h-11.73V2479.37a40.242,40.242,0,1,1,80.484,0Z" transform="translate(-1349.355)" fill="#24adc1"/>
    <path id="Path_5294" data-name="Path 5294" d="M590.419,2998.386H489.638a21.365,21.365,0,0,0-21.365,21.365h0a21.365,21.365,0,0,0,21.365,21.365h59.587l29.047,15.908v-15.908h12.147a21.365,21.365,0,0,0,21.365-21.365h0A21.365,21.365,0,0,0,590.419,2998.386Z" transform="translate(-37.403 -523.675)" fill="#b3b3b3" style="mix-blend-mode: color-burn;isolation: isolate"/>
    <g id="Group_5274" data-name="Group 5274" transform="translate(428.329 2472.17)">
      <g transform="matrix(1, 0, 0, 1, -9, -33.04)" filter="url(#Rectangle_10)">
        <rect id="Rectangle_10-2" data-name="Rectangle 10" width="143.511" height="42.73" rx="21.365" transform="translate(9 33.04)" fill="#fff"/>
      </g>
      <path id="Path_5295" data-name="Path 5295" d="M692.556,3170.654l-5.68,1.841v-5.964h-3.531v5.964l-5.68-1.841-1.075,3.355,5.648,1.846-3.5,4.82,2.873,2.1,3.5-4.819,3.5,4.819,2.873-2.1-3.5-4.82,5.648-1.846Z" transform="translate(-660.795 -3153.291)" fill="#24adc1"/>
      <path id="Path_5296" data-name="Path 5296" d="M1065.355,3170.654l-5.68,1.841v-5.964h-3.531v5.964l-5.68-1.841-1.074,3.355,5.648,1.846-3.5,4.82,2.873,2.1,3.5-4.819,3.5,4.819,2.873-2.1-3.5-4.82,5.648-1.846Z" transform="translate(-1009.874 -3153.291)" fill="#24adc1"/>
      <path id="Path_5297" data-name="Path 5297" d="M1438.153,3170.654l-5.68,1.841v-5.964h-3.531v5.964l-5.68-1.841-1.074,3.355,5.648,1.846-3.5,4.82,2.873,2.1,3.5-4.819,3.5,4.819,2.873-2.1-3.5-4.82,5.648-1.846Z" transform="translate(-1358.953 -3153.291)" fill="#24adc1"/>
      <path id="Path_5298" data-name="Path 5298" d="M1810.952,3170.654l-5.68,1.841v-5.964h-3.531v5.964l-5.68-1.841-1.075,3.355,5.648,1.846-3.5,4.82,2.873,2.1,3.5-4.819,3.5,4.819,2.873-2.1-3.5-4.82,5.648-1.846Z" transform="translate(-1708.031 -3153.291)" fill="#24adc1"/>
      <path id="Path_5299" data-name="Path 5299" d="M2184.825,3174.009l-1.074-3.355-5.68,1.841v-5.964h-3.531v5.964l-5.68-1.841-1.075,3.355,5.648,1.846-3.5,4.82,2.873,2.1,3.5-4.819,3.5,4.819,2.873-2.1-3.5-4.82Z" transform="translate(-2057.11 -3153.291)" fill="#24adc1"/>
      <path id="Path_5300" data-name="Path 5300" d="M1729.675,3645.922v-15.907h-29.047Z" transform="translate(-1619.677 -3587.285)" fill="#fff"/>
    </g>
    <path id="Path_5301" data-name="Path 5301" d="M1079.1,4261.717a10.4,10.4,0,0,0-5.507-6.816c-6.11-2.828-17.019-4.262-32.425-4.262s-26.315,1.434-32.425,4.262a10.4,10.4,0,0,0-5.507,6.816,15.485,15.485,0,0,0-.588,5.958l1.338,14.5,0,.041,0,.041a98.619,98.619,0,0,0,2.444,12.887c2.518,9.765,6.047,17.291,10.488,22.366a60.5,60.5,0,0,0,14.807,12.231,44.709,44.709,0,0,0,7.506,3.609l1.928.658,1.928-.658a44.7,44.7,0,0,0,7.506-3.609,60.5,60.5,0,0,0,14.807-12.231c4.441-5.076,7.97-12.6,10.488-22.366a98.619,98.619,0,0,0,2.444-12.887l0-.041,0-.041,1.338-14.5A15.492,15.492,0,0,0,1079.1,4261.717Z" transform="translate(-537.716 -1696.251)" fill="#b3b3b3" style="mix-blend-mode: color-burn;isolation: isolate"/>
    <g id="Group_5275" data-name="Group 5275" transform="translate(462.325 2551.847)">
      <path id="Path_5302" data-name="Path 5302" d="M1089.176,4375.686a51.276,51.276,0,0,0,19.743-14.12c9.214-10.53,11.487-31.949,11.487-31.949l1.338-14.5a9.58,9.58,0,0,0-.354-3.669,4.829,4.829,0,0,0-2.3-3.132c-3.942-1.825-12.564-3.709-29.914-3.709s-25.973,1.885-29.915,3.709a4.828,4.828,0,0,0-2.3,3.132,9.582,9.582,0,0,0-.354,3.669l1.338,14.5s2.274,21.419,11.487,31.949A51.275,51.275,0,0,0,1089.176,4375.686Z" transform="translate(-1050.587 -4298.634)" fill="#39b54a"/>
      <path id="Path_5303" data-name="Path 5303" d="M1071.9,4364.034c-9.214-10.53-11.487-31.949-11.487-31.949l-1.338-14.5a9.585,9.585,0,0,1,.354-3.67,4.83,4.83,0,0,1,2.3-3.132c3.942-1.825,12.564-3.709,29.915-3.709,16.665,0,25.276,1.739,29.424,3.493a4.212,4.212,0,0,0-1.978-2.251c-3.942-1.825-12.564-3.709-29.914-3.709s-25.973,1.885-29.915,3.709a4.828,4.828,0,0,0-2.3,3.132,9.582,9.582,0,0,0-.354,3.669l1.338,14.5s2.274,21.419,11.487,31.949c1.21,1.383,2.442,2.645,3.671,3.795Q1072.5,4364.717,1071.9,4364.034Z" transform="translate(-1050.587 -4298.634)" fill="#ccc" style="mix-blend-mode: multiply;isolation: isolate"/>
      <path id="Path_5304" data-name="Path 5304" d="M1039.157,4221.777a10.4,10.4,0,0,0-5.506-6.816c-6.11-2.828-17.019-4.262-32.425-4.262q-9.582,0-16.822.737c-6.805.692-12.026,1.869-15.6,3.525a10.4,10.4,0,0,0-5.507,6.816,15.481,15.481,0,0,0-.587,5.958l1.338,14.5,0,.04,0,.041A98.636,98.636,0,0,0,966.5,4255.2c2.518,9.764,6.047,17.29,10.488,22.365a60.5,60.5,0,0,0,14.807,12.231,44.66,44.66,0,0,0,7.505,3.609l1.929.658,1.928-.658a44.688,44.688,0,0,0,7.506-3.609,60.47,60.47,0,0,0,14.806-12.231,34.286,34.286,0,0,0,3.091-4.156,63.52,63.52,0,0,0,7.4-18.209,98.636,98.636,0,0,0,2.445-12.888l0-.041,0-.04,1.338-14.5A15.462,15.462,0,0,0,1039.157,4221.777Zm-5.363,5.409-1.338,14.5s-1.946,18.332-9.533,29.414a27.01,27.01,0,0,1-1.954,2.535,51.282,51.282,0,0,1-19.744,14.12,49.767,49.767,0,0,1-16.073-10.325q-.23-.214-.46-.437t-.461-.448c-.922-.906-1.842-1.874-2.749-2.911-9.214-10.53-11.488-31.949-11.488-31.949l-1.338-14.5a9.562,9.562,0,0,1,.355-3.67,4.831,4.831,0,0,1,2.3-3.133c2.411-1.117,6.577-2.255,13.422-2.971a160.127,160.127,0,0,1,16.492-.738c17.35,0,25.972,1.885,29.915,3.709l.111.054.008,0c.033.018.067.035.1.054s.078.045.116.068.058.036.086.056l.037.025c.028.019.057.039.084.06a3.456,3.456,0,0,1,.341.288c.018.016.035.032.052.05.046.045.089.091.131.137a.942.942,0,0,1,.064.072c.022.024.042.048.062.072a4.709,4.709,0,0,1,.439.626c.066.11.127.224.185.338.029.057.058.115.084.173a.033.033,0,0,1,.006.012c.025.055.05.108.073.163a8.094,8.094,0,0,1,.323.881A9.576,9.576,0,0,1,1033.794,4227.186Z" transform="translate(-962.637 -4210.699)" fill="#75c67d"/>
      <path id="Path_5305" data-name="Path 5305" d="M1273.808,4615.6l-13.717-13.717,5.716-5.716,8,8,19.892-19.892,5.716,5.716Z" transform="translate(-1241.165 -4560.51)" fill="#fff"/>
    </g>
    <path id="Path_5306" data-name="Path 5306" d="M2246.544,3467.234v95.672c0,.064,0,.129,0,.193a96.228,96.228,0,0,1-78.136-105.531h68.471A9.667,9.667,0,0,1,2246.544,3467.234Z" transform="translate(-1628.782 -953.639)" fill="#333" style="mix-blend-mode: screen;isolation: isolate"/>
    <path id="Path_5307" data-name="Path 5307" d="M962.706,4227.735l1.338,14.5,0,.04,0,.041A98.6,98.6,0,0,0,966.5,4255.2a63.527,63.527,0,0,0,7.4,18.209q2.881-1.03,5.633-2.313a66.659,66.659,0,0,0,37.862-50.97q.192-1.35.329-2.715.3-2.952.329-5.977-7.229-.736-16.822-.737c-15.406,0-26.314,1.434-32.425,4.262a10.4,10.4,0,0,0-5.506,6.816A15.462,15.462,0,0,0,962.706,4227.735Z" transform="translate(-500.312 -1658.852)" fill="#333" style="mix-blend-mode: screen;isolation: isolate"/>
  </g>
</svg>
