<svg xmlns="http://www.w3.org/2000/svg" width="29.75" height="34" viewBox="0 0 29.75 34">
  <g id="doc" transform="translate(-3.875)">
    <path id="Path_7239" data-name="Path 7239" d="M13.75,0a2.131,2.131,0,0,0-2.125,2.125v29.75A2.131,2.131,0,0,0,13.75,34H35a2.131,2.131,0,0,0,2.125-2.125V8.5L28.625,0Z" transform="translate(-3.5)" fill="#e2e5e7"/>
    <path id="Path_7240" data-name="Path 7240" d="M44.75,8.5h6.375L42.625,0V6.375A2.131,2.131,0,0,0,44.75,8.5Z" transform="translate(-17.5)" fill="#b0b7bd"/>
    <path id="Path_7241" data-name="Path 7241" d="M52.875,21.875,46.5,15.5h6.375Z" transform="translate(-19.25 -7)" fill="#cad1d8"/>
    <path id="Path_7242" data-name="Path 7242" d="M29.375,40.75a1.066,1.066,0,0,1-1.062,1.063H4.938A1.066,1.066,0,0,1,3.875,40.75V30.125a1.066,1.066,0,0,1,1.063-1.062H28.313a1.066,1.066,0,0,1,1.063,1.063Z" transform="translate(0 -13.125)" fill="#50bee8"/>
    <path id="Path_7243" data-name="Path 7243" d="M10.727,41.659a.533.533,0,0,1-.587-.527V36.307a.577.577,0,0,1,.587-.527h1.945c3.882,0,3.8,5.879.075,5.879Zm.535-4.843v3.806h1.41c2.294,0,2.395-3.806,0-3.806Z" transform="translate(-2.83 -16.159)" fill="#fff"/>
    <path id="Path_7244" data-name="Path 7244" d="M24.971,41.569a2.967,2.967,0,0,1-3.2-3.059,3.122,3.122,0,0,1,6.244,0A2.963,2.963,0,0,1,24.971,41.569ZM24.878,36.5A2.014,2.014,0,1,0,26.9,38.511,1.944,1.944,0,0,0,24.878,36.5Z" transform="translate(-8.081 -15.984)" fill="#fff"/>
    <path id="Path_7245" data-name="Path 7245" d="M34.978,38.55A2.86,2.86,0,0,1,37.96,35.5a2.776,2.776,0,0,1,1.945.757.551.551,0,1,1-.756.8,1.466,1.466,0,0,0-1.189-.466,1.836,1.836,0,0,0-1.936,1.962,1.868,1.868,0,0,0,1.936,2.022,1.984,1.984,0,0,0,1.326-.544.57.57,0,0,1,.781.1.586.586,0,0,1-.094.8,2.779,2.779,0,0,1-2.014.664A2.8,2.8,0,0,1,34.978,38.55Z" transform="translate(-14.046 -16.033)" fill="#fff"/>
    <path id="Path_7246" data-name="Path 7246" d="M31.813,51.438H11.625V52.5H31.813a1.066,1.066,0,0,0,1.063-1.062V50.375A1.066,1.066,0,0,1,31.813,51.438Z" transform="translate(-3.5 -22.75)" fill="#cad1d8"/>
  </g>
</svg>
